<svg xmlns="http://www.w3.org/2000/svg" width="1024" height="724" style="shape-rendering:geometricPrecision;text-rendering:geometricPrecision;image-rendering:optimizeQuality;fill-rule:evenodd;clip-rule:evenodd">
  <path style="opacity:1" fill="#d9d9d9" d="M654.5 113.5h4v3h-4z"/>
  <path style="opacity:1" fill="#111" d="M487.5 90.5q109.891-6.651 181.5 76 58.677 71.91 67 165 7.577 95.014-37 179-38.26 67.263-107.5 101.5-117.798 46.782-215-34-75.4-70.542-89.5-173.5-16.677-119.37 50-219 55.725-78.485 150.5-95"/>
  <path style="opacity:1" fill="#e0e0e0" d="M496.5 94.5q108.336-1.452 175.5 83 69.597 93.346 59 210-9.39 111.518-90.5 187.5-96.982 79.855-213 31-81.778-43.293-116.5-129.5-46.455-121.164 3-241 31.294-69.383 94.5-111.5 40.774-24.841 88-29.5"/>
  <path style="opacity:1" fill="#080a09" d="m332.5 269.5-5 2.5q7.84-1.653 15-6 1.794-.981 0-1.5a5.6 5.6 0 0 1-3 1q-1.542-.86-3-1a20.5 20.5 0 0 1 5.5-3l1-4q3.212 4.231 8.5 4 .256 3.74-3 5.5 2.81 1.43 1 3.5a117.4 117.4 0 0 0-18 10 17.34 17.34 0 0 0-7 3.5q3.997-.72 8-2.5 2.148.35 1.5 2l-9.5 5.5q-1.794.981 0 1.5 7.014-4.006 14-8 1.858.663 3 2-1.5.5-2 2-5.553 2.285-10 6.5l-5 1q.686.621 1 1.5l-6 5q2.315-.317 5 0-2 1.68-1.5 4 1.67-2.744 4.5-2.5l-9.5 9.5q-1 1 0 2a54.5 54.5 0 0 1 6.5-6q1.29 3.474 1.5 7l-5 5-1-1a17.35 17.35 0 0 1-3.5 7l.5 1a15 15 0 0 1 3.5-3 71 71 0 0 1 4 3q-1.65 1.657-2 4-3 2.214-5 5.5-2.412.987-3.5-1.5a15.3 15.3 0 0 1-1.5 4.5l2 1a66.7 66.7 0 0 0-9 14.5 22.5 22.5 0 0 1 3 4l2-2q.91.186 1 1-.16 2.818 1.5 1a17.34 17.34 0 0 0 3.5-7q1.5-.5 2-2a43 43 0 0 1 0 5q1.695 1.683 2 4l-1 4q-2.625 1.739-3 5a49 49 0 0 0-5.5 8q-1.952 2.853-2 6l4-6 2 8q1.202-3.049 1.5-6.5l-2-1q2.364-3.115 6-4.5 1.533.533 2 2-2.17 3.306-2.5 7 1.402-3.903 5.5-4.5a3.94 3.94 0 0 1-1-2 37 37 0 0 0 2-5.5 75.7 75.7 0 0 0 9-14q1.46 1.937 3 0a7.3 7.3 0 0 1 2 3 105 105 0 0 0-8 16q-3.132 2.754-4 7a211 211 0 0 0-14 24q1.298 1.624 3 .5-1.552-2.26.5-4.5 1-2 2 0 4.625-3.24.5-4 .762-3.606 3.5-2 1.476-3.442 2.5 1-2.283 2.484 1 3.5a44 44 0 0 0-3 5.5q1.12.355 2.5 1a50.4 50.4 0 0 1 5.5-14q3.132-2.754 4-7 4.095-4.655 6-11 4.627-5.745 7-13 2.851 2.153 1 5 1.237 1.329 3 1-3.433 10.638-11 18.5.686.621 1 1.5a54 54 0 0 0-4 9 72 72 0 0 0 8-14q4.553-.23 6 4l-1 6q-5.46 11.377-8 24-4.869 11.454-7 24-3.864 10.566-4.5 22l5.5-22a180 180 0 0 1 5-18q1.152 1.144 1.5 3 1.466-1.911 2.5 0a272 272 0 0 0-6.5 29 1835 1835 0 0 0 9.5-33q1.152 1.144 1.5 3l1-3q.696.891.5 2a342 342 0 0 0-6.5 31 247 247 0 0 0 7.5-30q3.687-6.732 6-13a1774 1774 0 0 0-8.5 45 478 478 0 0 0 9.5-42q1.083 1.577 3 2a213 213 0 0 0-3 18 266 266 0 0 0 7-27 6.55 6.55 0 0 1 3 3 751 751 0 0 0-6.5 38 386 386 0 0 0 7.5-38 441 441 0 0 0 4.5-18l1-2a16.6 16.6 0 0 0 2.5 4 291 291 0 0 0-2.5 24 212 212 0 0 0 4.5-27q1.152-1.144 1.5-3a23.7 23.7 0 0 0 3.5 3l19 2q-9.732 1-19 2v2a232 232 0 0 1 20 2.5 197 197 0 0 0-20 1.5q-.814.09-1 1 10.452 1.495 21 1a5.73 5.73 0 0 0-1 3q-10.625-.939-20 2 10.268 1 21 2-10.732 1-21 2 9.88 2.942 21 2-2 1.5 0 3-11.12-.942-21 2-1.243 1.248-2.5-1-2.774 3.762 1 7 .417-1.374 1.5-2 9.375 2.939 20 2 .116 1.875 2 2.5-11.267.256-22 1.5-.814.09-1 1 10.452 1.495 21 1 1.57.866-.5 2-2.368-1.95-3.5 1a73 73 0 0 0-17 1l10.5 1q5.853-.018 10.5-2 2.276.016 3.5 2 1 7.5 0 15-.414-3.4-2-7-.348 1.856-1.5 3-4.902-1.983-11-2-5.774.002-11 1-.814.09-1 1a306 306 0 0 1 24 2.5q-12.265.256-24 1.5-.814.09-1 1a133 133 0 0 0 23 1l2 3q3.516.263 5 3.5l-3 1q-14.763.255-29 1.5 13.913 2.96 29 2 1.083-.626 1.5-2 2.235 1.842 4.5 0 9.51 10.516 24 10 6.213 2.319 12-1.5a7.3 7.3 0 0 0-3-2q1.75-.75 2.5-2.5 2.635 4.392 1.5 9a5.73 5.73 0 0 0-1 3q-1.494.129-2.5-1l-1 5q-1.112 1.712-2.5 0-1.197.686-1 2a1483 1483 0 0 0-77 1q-.814.09-1 1a2668 2668 0 0 0 73 1.5 15.6 15.6 0 0 1-6 1.5q-34.76-.497-69 1-.814.09-1 1a601 601 0 0 0 69 0q.814.09 1 1-3.233.751-5 3-34.76-.497-69 1-.814.09-1 1 35.486 1.5 71 1 1.538.595.5 2-5.635 5.154-13.5 4.5.834.574 1 1.5-33.26-.496-66 1-.814.09-1 1 32.484 1.5 65 1l-1.5 3q-2.157-1.827-5-2-28.476.954-56.5 2-2.872-.426-5 1-.814.09-1 1 27.987 1.25 56 1.5a9.5 9.5 0 0 0-2.5 1.5q-5.9-1.982-11.5 0a463 463 0 0 0-43 1 18.5 18.5 0 0 0 2 3.5q16.5 1 33 0 2.575-2.338 6-2.5h1q1.356 1.063 1 3a59 59 0 0 0-9 5q-3.438-4.457-5 1-1.783 1.393-4 1-.978-1.838-3.5-2-2.077.021-3.5 1-4.787.393-8 4 .686 1.197 2 1 2.092 1.722-.5 3-3.465-2.456-4.5-6.5-3.04-2.819-7-3.5-51.312-76.968-50-170 .384-54.414 20-105 1.494.129 2.5-1l1 3q1.665-2.305 4.5-2v3a22.1 22.1 0 0 0 9.5-2 16.2 16.2 0 0 1 3.5 1.5q-3.959 2.919-9 3v4q1 1 2 0 1.25-2.25 3.5-3.5a10.5 10.5 0 0 0 3.5 5q-4.453 1.752-1 4-2.118 1.96-5 2.5 1.374.417 2 1.5"/>
  <path style="opacity:1" fill="#e1e1e1" d="M531.5 121.5a19.2 19.2 0 0 1-1 6q-65.804 11.77-111.5 60a203.2 203.2 0 0 0-24.5 38q-25.32 51.383-12 107-2.466.32-4.5-1-15.884-59.043 13-113 44.472-80.194 134.5-99 3.428.264 6 2"/>
  <path style="opacity:1" fill="#cacaca" d="M539.5 219.5a199.6 199.6 0 0 0-34.5 9q-2.582-.166-.5-1.5 10.614-5.452 22-7.5 7.615-1.41 13 0"/>
  <path style="opacity:1" fill="#e2e2e2" d="M638.5 260.5q.428 2.682-1 5-28.75-12.495-60-8.5a564 564 0 0 0-71 17.5 627 627 0 0 0-11.5-34 351 351 0 0 1 50.5-18q16.499-3.15 33-6.5a182 182 0 0 1 33-1q20.643 18.538 27 45.5"/>
  <path style="opacity:1" fill="#202020" d="M618.5 249.5q4.233 1.933 2 6a10.8 10.8 0 0 1-2-6"/>
  <path style="opacity:1" fill="#696969" d="M582.5 248.5h3q.393 2.217-1 4-2.417-1.23-2-4"/>
  <path style="opacity:1" fill="#242424" d="M571.5 250.5q2.947.672 1 3-1.329-1.237-1-3"/>
  <path style="opacity:1" fill="#191919" d="M610.5 249.5q1.63.18 2 2l-1 2q-1.393-1.783-1-4"/>
  <path style="opacity:1" fill="#151515" d="M577.5 249.5q2.947.672 1 3-1.329-1.237-1-3"/>
  <path style="opacity:1" fill="#2b2b2b" d="M602.5 247.5q4.385.995 2 5-2.175-2.024-2-5"/>
  <path style="opacity:1" fill="#303030" d="M595.5 247.5q4.385.995 2 5-2.175-2.024-2-5"/>
  <path style="opacity:1" fill="#222" d="M589.5 248.5q1.63.18 2 2l-1 2q-1.393-1.783-1-4"/>
  <path style="opacity:1" fill="#2e2e2e" d="M623.5 242.5q2.378.753 1.5 3-1.558-1.116-1.5-3"/>
  <path style="opacity:1" fill="#626262" d="M569.5 242.5q2.588.514 1.5 3-1.558-1.116-1.5-3"/>
  <path style="opacity:1" fill="#646464" d="M563.5 243.5q2.755.209 1 2-1.197-.686-1-2"/>
  <path style="opacity:1" fill="#181818" d="M587.5 240.5q2.588.514 1.5 3-1.558-1.116-1.5-3"/>
  <path style="opacity:1" fill="#525252" d="M575.5 241.5q2.947.672 1 3-1.329-1.237-1-3"/>
  <path style="opacity:1" fill="#505050" d="M615.5 240.5q2.755.209 1 2-1.197-.686-1-2"/>
  <path style="opacity:1" fill="#2b2b2b" d="M607.5 238.5q3.211 1.883 2 5-2.576-1.752-2-5"/>
  <path style="opacity:1" fill="#181818" d="M600.5 240.5q1.865-1.856 3 1l-1 1a31 31 0 0 0-2-2"/>
  <path style="opacity:1" fill="#151515" d="M594.5 239.5q2.748.96 1 3-1.329-1.237-1-3"/>
  <path style="opacity:1" fill="#404040" d="M586.5 232.5q2.748.96 1 3-1.329-1.237-1-3"/>
  <path style="opacity:1" fill="#292929" d="M579.5 233.5q2.748.96 1 3-1.329-1.237-1-3"/>
  <path style="opacity:1" fill="#5e5e5e" d="M573.5 234.5q2.947.672 1 3-1.329-1.237-1-3"/>
  <path style="opacity:1" fill="#1b1b1b" d="M605.5 231.5q2.947.672 1 3-1.329-1.237-1-3"/>
  <path style="opacity:1" fill="#313131" d="M611.5 231.5q3.498.993 2 4-2.417-1.23-2-4"/>
  <path style="opacity:1" fill="#141414" d="M598.5 231.5q2.588.514 1.5 3-1.558-1.116-1.5-3"/>
  <path style="opacity:1" fill="#2f2f2f" d="M591.5 231.5q2.947.672 1 3-1.329-1.237-1-3"/>
  <path style="opacity:1" fill="#686868" d="M596.5 224.5q2.755.209 1 2-1.197-.686-1-2"/>
  <path style="opacity:1" fill="#5a5a5a" d="M601.5 223.5q2.947.672 1 3-1.329-1.237-1-3"/>
  <path style="opacity:1" fill="#cfcfcf" d="M523.5 217.5a304 304 0 0 0-23.5 6l-1.5-.5a130 130 0 0 1 14-6.5 151.3 151.3 0 0 1 31-3.5q-10.385 1.469-20 4.5"/>
  <path style="opacity:1" fill="#d4d4d4" d="M525.5 210.5q1.487-.257 2 1l-16 4a131 131 0 0 1-19 4.5q15.2-9.09 33-9.5"/>
  <path style="opacity:1" fill="#797a79" d="M527.5 211.5q-.513-1.257-2-1 1.602-1.401 4-1 3.919-1.403 8-.5a91 91 0 0 1-10 2.5"/>
  <path style="opacity:1" fill="#424343" d="M674.5 200.5q1.257.513 1 2-37.259.497-74-1 36.759.497 73-1"/>
  <path style="opacity:1" fill="#dcdcdc" d="M674.5 199.5v1a1333 1333 0 0 1-73 1q-1.184-.424-2-1.5 37.497-.75 75-.5"/>
  <path style="opacity:1" fill="#6f706f" d="M523.5 200.5q5.05-1.96 6 0-2.188-.1-4 1-.513-1.257-2-1"/>
  <path style="opacity:1" fill="#ccc" d="M519.5 195.5q13.368.356-1 2a683 683 0 0 1-36 9.5q17.272-10.177 37-11.5"/>
  <path style="opacity:1" fill="#b3b3b3" d="M592.5 195.5a1522 1522 0 0 1 78-1q1 0 1 1v1q-39.612.486-79-1"/>
  <path style="opacity:1" fill="#b0b1b0" d="M480.5 197.5q-3.74.554-2-2a92.7 92.7 0 0 1 27-5.5 229 229 0 0 0-25 7.5"/>
  <path style="opacity:1" fill="#7d7f7e" d="M473.5 184.5a37 37 0 0 0-5.5 2q-2.526-.275-.5-2 3.23-1.61 6 0"/>
  <path style="opacity:1" fill="#1e1e1e" d="M654.5 168.5a226 226 0 0 1 32 43 12.8 12.8 0 0 1-6-3q-2.588 2.388-3-1 1 0 1-1 1.295 1.445 2 0a6.85 6.85 0 0 1-1-4h-4q.257-1.487-1-2v-1q0-3-3-3v-1q1.356-1.063 1-3-4.648.13-1-1.5-1.645-3.089-4-1.5a1187 1187 0 0 0-84-.5q.834.575 1 1.5a28 28 0 0 1-4 1.5q1.374.417 2 1.5h-3q-6.221-1.237-13-1.5l3-1.5q4.206 1.707 9 .5-.834-.575-1-1.5 2.726-1.078 2-3 42.832 1.882 87 0l-3-3h-1v-1q.814-.09 1-1-2.22-2.936-5-2-.166-.925-1-1.5a1507 1507 0 0 0-95 .5q-.814-.09-1-1a4613 4613 0 0 1 96-1.5q2-1 0-2-54.173 1.225-108-.5a2705 2705 0 0 0 104-1q.001-1.882 1-4"/>
  <path style="opacity:1" fill="#191919" d="M530.5 127.5q2 2.5 0 5-75.17 10.722-120.5 72a73.6 73.6 0 0 0-5.5 10l-8.5 17q-.744-2.303.5-4.5-.504-1.545-2-1.5a203.2 203.2 0 0 1 24.5-38q45.696-48.23 111.5-60"/>
  <path style="opacity:1" fill="#6a6a6a" d="M662.5 182.5v1q-43.757-.497-87 1-.814-.09-1-1 43.989-1.5 88-1"/>
  <path style="opacity:1" fill="#d1d1d1" d="M562.5 178.5a1507 1507 0 0 1 95-.5q.834.575 1 1.5a2355 2355 0 0 1-96-1"/>
  <path style="opacity:1" fill="#b2b2b2" d="M545.5 171.5q54.11-.49 108 1a2705 2705 0 0 1-104 1q-2.82.406-4-2"/>
  <path style="opacity:1" fill="#262626" d="M487.5 172.5q-.352.895-1.5 1a15.4 15.4 0 0 0-4.5-2 121 121 0 0 1 30-9.5q-13.645 3.871-24 10.5"/>
  <path style="opacity:1" fill="#9a9b9b" d="M529.5 164.5v5a113 113 0 0 1-15-.5q2.101-.615 4-1.5 4.687 1.469 10 1-.401-2.398 1-4"/>
  <path style="opacity:1" fill="#2a2a2a" d="M642.5 161.5q.814.09 1 1-47.49 1.5-95 1-1 0-1-1 47.756.498 95-1"/>
  <path style="opacity:1" fill="#c4c4c4" d="M549.5 160.5q46.61-.488 93 1a2256 2256 0 0 1-95 1q0-2 2-2"/>
  <path style="opacity:1" fill="#030403" d="M624.5 141.5q16.829 11.322 30 27-.999 2.118-1 4a2945 2945 0 0 0-108-1 2.43 2.43 0 0 1-2-.5l3-1q-2.487-1.088-1.5-3.5.417 1.373 1.5 2 51.01.5 102-1-.186-.91-1-1a5186 5186 0 0 0-102-1.5q1.855-.348 3-1.5 47.51.5 95-1-.186-.91-1-1a2187 2187 0 0 0-93-1v-3q44.003.25 88-.5-.816-1.076-2-1.5a3682 3682 0 0 0-86-1.5q.834-.575 1-1.5-1.184-.424-2-1.5 3.05-2.358 4-4.5 35.514.5 71-1-.186-.91-1-1a2366 2366 0 0 0-69-1.5q36.329-2.11 71-1.5"/>
  <path style="opacity:1" fill="#c4c4c4" d="M647.5 166.5q.814.09 1 1-50.99 1.5-102 1 49.975-2.99 101-2"/>
  <path style="opacity:1" fill="#aaa" d="M635.5 155.5q1.184.424 2 1.5-43.997.75-88 .5 42.471-2.988 86-2"/>
  <path style="opacity:1" fill="#1e1e1e" d="M530.5 135.5q.488 11.278-1 22v-19q-67.475 10.972-111 63 .186.91 1 1-1.525 3.149-4 3 2.594-3.527 2-8 30.14-36.1 75-51.5a489 489 0 0 1 38-10.5"/>
  <path style="opacity:1" fill="#dcdcdc" d="M530.5 132.5v3a489 489 0 0 0-38 10.5q-44.86 15.4-75 51.5a253 253 0 0 0-13 17 73.6 73.6 0 0 1 5.5-10q45.33-61.278 120.5-72"/>
  <path style="opacity:1" fill="#343434" d="M551.5 150.5a781 781 0 0 0 79 0q.814.09 1 1-40.488 1.5-81 1-.257-1.487 1-2"/>
  <path style="opacity:1" fill="#d8d8d8" d="M630.5 150.5a781 781 0 0 1-79 0 784 784 0 0 1 79 0"/>
  <path style="opacity:1" fill="#b3b3b3" d="M622.5 144.5q.814.09 1 1-35.486 1.5-71 1 34.464-2.985 70-2"/>
  <path style="opacity:1" fill="#e3e3e3" d="M529.5 157.5v7q-1.401 1.602-1 4-5.313.469-10-1l3-1.5-2-.5a419 419 0 0 1-32 7q10.355-6.629 24-10.5a121 121 0 0 0-30 9.5 129.4 129.4 0 0 1-20 8 16.1 16.1 0 0 0-5 2q-1.794-.519 0-1.5a244 244 0 0 1 18-10.5 197 197 0 0 1 17-8 468 468 0 0 0 16-6.5q-3.08-.487-6 1-5.341 1.848-10 4.5a100.3 100.3 0 0 0-18 8 166.3 166.3 0 0 0-30 17q-1.19-1.283 1-2.5a417 417 0 0 1 20-15.5q-25.512 13.498-45 35-.814-.09-1-1 43.525-52.027 111-63z"/>
  <path style="opacity:1" fill="#5e5e5e" d="M464.5 167.5q1.748-2.874 5-2.5-2.115 2.058-5 2.5"/>
  <path style="opacity:1" fill="#3f3f3f" d="M491.5 160.5v1a197 197 0 0 0-17 8q0-1-1-1a100.3 100.3 0 0 1 18-8"/>
  <path style="opacity:1" fill="#a4a4a4" d="M491.5 161.5v-1q4.659-2.652 10-4.5 2.92-1.487 6-1a468 468 0 0 1-16 6.5"/>
  <path style="opacity:1" fill="#0d0e0e" d="M529.5 103.5a2.43 2.43 0 0 0-2 .5q2.342.477 3.5 2.5 1.476-3.442 2.5 1-2.143 2.746-1.5 6 2.622-2.453 3.5-6 1.5 2.5 4 4l2-3q1.717 1.914 0 4 3.488 4.834 7.5 1l1 2 2-4q.804 3.101-1.5 5.5.912 1.305 2.5 1.5a21.8 21.8 0 0 0 4-5 29 29 0 0 0 1.5 4q-2.676 3.026-6 5a417 417 0 0 1-13.5-4q-1.418.608-2 2a25 25 0 0 0-.5 7 247 247 0 0 1-2-7q-1.745.834-3 1-2.572-1.736-6-2-90.028 18.805-134.5 99-28.884 53.957-13 113 2.034 1.32 4.5 1-13.32-55.617 12-107 1.496-.045 2 1.5-1.244 2.197-.5 4.5l8.5-17a253 253 0 0 1 13-17q.594 4.473-2 8 2.475.149 4-3 19.488-21.502 45-35a417 417 0 0 0-20 15.5q-2.19 1.217-1 2.5a166.3 166.3 0 0 1 30-17q1 0 1 1a244 244 0 0 0-18 10.5q-1.794.981 0 1.5a16.1 16.1 0 0 1 5-2q2.087 3.585 6 5-2.026 1.725.5 2a37 37 0 0 1 5.5-2q1.545 2.318 6 3.5l-2 1q1.884.625 2 2.5-3.18 1.355-1 4-1.74 2.554 2 2 2.398-.401 4 1a81 81 0 0 1-3 2.5 310 310 0 0 0 24-5.5q4.059-.58 7-3a20.7 20.7 0 0 1 5-1q.255 1.983-1 3.5a4.93 4.93 0 0 0 3 .5q-19.728 1.323-37 11.5a683 683 0 0 0 36-9.5l2 3q-18.242 1.587-34 10.5l1.5.5a270 270 0 0 1 37.5-10q1.812-1.1 4-1v3a18.5 18.5 0 0 1 6 .5 10.1 10.1 0 0 1-4 1.5q-23.094-.712-44 10.5l1.5.5a395 395 0 0 1 40.5-11v4q-2.398-.401-4 1-17.8.41-33 9.5a131 131 0 0 0 19-4.5q0 1 1 1a130 130 0 0 0-14 6.5l1.5.5a304 304 0 0 1 23.5-6q.71 2.11 3 2-11.386 2.048-22 7.5-2.082 1.334.5 1.5a199.6 199.6 0 0 1 34.5-9l6 3a351 351 0 0 0-50.5 18 627 627 0 0 1 11.5 34 564 564 0 0 1 71-17.5q31.25-3.995 60 8.5 1.428-2.318 1-5 1.442 2.647 1 6a4.93 4.93 0 0 0-3 .5q4.81.858 5 5.5-.814.09-1 1 34.5 2 69 0-.186-.91-1-1 .128-1.494-1-2.5a2098 2098 0 0 1-65-1.5q32.516.5 65-1-31.984-1.5-64-1 31.255-1 63-2-.186-.91-1-1v-3q-.762-2.6-2.5-1a2.43 2.43 0 0 1-.5-2q2-1 0-2v-1q2.535-.534 3-3 16.07 39.295 19 82a19.6 19.6 0 0 0-2 3.5q1.031 3.348 1 6.5-.686 1.197-2 1h-79q39.255-1 79-2-39.745-1-79-2 39.533.987 78-2 .924-1.053 0-3-39.468-2.987-80-2 39.755-1 80-2-41.245-1-82-2 41.031.987 81-2-2-1.5 0-3v-3q-.166-.926-1-1.5a3682 3682 0 0 1-86-1.5 4.93 4.93 0 0 0-3 .5q2.042 2.376 2 5.5-10.807-17.853-17-37.5-2.098-.892-4 .5-3.812-4.363-5 1.5-5.097.432-6 5.5a16.1 16.1 0 0 0-5 2.5q1.573.739 3-.5 1.817 1.16 0 2.5a72.5 72.5 0 0 0-10 5.5q-2.47-2.838-1-6l-1.5-1q-9.281 2.58-17.5-2.5a18.5 18.5 0 0 0-6-.5q-.03 2.464 2 4a3.65 3.65 0 0 1-1 1.5q-4.891-3.108-10 .5l-1-.5q5.924-5.088-2-3a77.1 77.1 0 0 1 24-10.5q1.314.197 2-1-3.204-1.94-6 0a4.93 4.93 0 0 1-3-.5q6.422-3.805 14-4a21.5 21.5 0 0 1-5-6q-9.048-2.42-18 0 3.792 1.497 0 2.5a456 456 0 0 0-39 15q-3.729 1.443 0 2.5l-1.5.5-5-3q-4.707 2.39-2.5 7-.533 1.533-2 2-1.723-15.612-7-30-2.246-12.245-8-23-14.683-38.436-52.5-55a3.94 3.94 0 0 0-2 1 180.3 180.3 0 0 0 6.5 43 258 258 0 0 0 8 30v2q-3.726 2.196 0 5-3.88 4.222-6.5-1l-2.5 2.5q1.426 1.077.5 2.5-3.8-.675-6.5-3 2.154-1.393 4-3.5-7.3 2.157-13 7.5-1.15 1.008-2 2.5a39 39 0 0 1 5 2.5l-3 2q-.814.09-1 1 1.237 1.329 3 1v3q-.5 1.5-2 2-.814.09-1 1a10.3 10.3 0 0 0 4 1.5q-2.305 1.665-2 4.5-.679 1.438-2 2.5a49 49 0 0 1 8 5.5v6q-2.611 6.11-9 8-5.286-.826-3-5.5 6.206.305 4.5-5.5a32 32 0 0 1-4.5-5q-6.507 4.996-8 13 2.794 12.397 14 7 3.871-1.613 6.5-5l1 1q1.064-2.21 3.5-2-.53 5.069-4 9l1 2a16.64 16.64 0 0 1-5 6l4 4a10.3 10.3 0 0 1-4 1.5q4.452 3.267-1 3.5.544 3.616-3 4.5 7.479 3.302 0 5 6.352 4.13-1 5 3.176 1.573 5 4.5a25 25 0 0 0-7 .5l3 1.5a10.5 10.5 0 0 1 3 2.5l-8 1 7 5q-5.78.88-11-1a45.5 45.5 0 0 1 10 8q-4.212.356-8-1l7 7a21.4 21.4 0 0 1-5 0 32.4 32.4 0 0 0 3 4.5l-1.5 1q-2.957-2.367-6.5-2.5a74 74 0 0 1 7 7.5 7.5 7.5 0 0 1-5 .5 32.4 32.4 0 0 0 3 4.5l-1.5 1q-2.09-1.673-4.5-1.5a39 39 0 0 1 5 5.5l-4 2q2.318 4.045-2 6a52 52 0 0 0 0 11q-2.217-.393-4 1 .186.91 1 1a69.3 69.3 0 0 0-1.5 23q1.044 4.406 3.5 8-2.265 1.842-4.5 0-.417 1.374-1.5 2-13.913-2.96-29-2 14.237-1.245 29-1.5l3-1q-1.484-3.237-5-3.5l-2-3q.814-.09 1-1a133 133 0 0 0-23-1 284 284 0 0 1 24-1.5 306 306 0 0 0-24-2.5q.186-.91 1-1 10.722 1.488 22 1 1.152-1.144 1.5-3 1.586 3.6 2 7 1-7.5 0-15-1.224-1.984-3.5-2h-4q1.132-2.95 3.5-1 2.07-1.134.5-2-9.375-2.939-20-2a238 238 0 0 1 22-1.5q-1.884-.625-2-2.5-9.375-2.939-20-2-1.083.626-1.5 2-3.774-3.238-1-7 1.257 2.248 2.5 1 11.12.942 21-2-2-1.5 0-3-9.88-2.942-21-2 10.268-1 21-2a5046 5046 0 0 1-21-2q10.548.495 21-1-.186-.91-1-1a5.73 5.73 0 0 1 1-3q-9.375-2.939-20-2a197 197 0 0 1 20-1.5 232 232 0 0 0-20-2.5q40-1 0-2 9.268-1 19-2l-19-2a23.7 23.7 0 0 1-3.5-3q-.348 1.856-1.5 3a2.43 2.43 0 0 0-.5-2q-.297 2.822-1.5 5a16.6 16.6 0 0 1-2.5-4l-1 2a441 441 0 0 1-4.5 18h-1a6.55 6.55 0 0 0-3-3 34.8 34.8 0 0 0 1.5-11 339 339 0 0 1-5.5 20q-1.917-.423-3-2 1.97-5.364 1.5-11a128 128 0 0 1-2.5 8q-2.313 6.268-6 13 0-1-1-1a2.43 2.43 0 0 0-.5-2l-1 3q-.348-1.856-1.5-3a61.4 61.4 0 0 0 3-13 335 335 0 0 0-6 17q-1.034-1.911-2.5 0-.348-1.856-1.5-3a19.2 19.2 0 0 0 1-6 169 169 0 0 0 8-24q2.65-3.437 3-8l-2 2q-1.447-4.23-6-4 5.447-7.879 7.5-17-.417 1.374-1.5 2-1.763.329-3-1 1.851-2.847-1-5-2.373 7.255-7 13-4.137 4.767-6 11-3.132 2.754-4 7a50.4 50.4 0 0 0-5.5 14 21 21 0 0 0-2.5-1 44 44 0 0 1 3-5.5q-3.283-1.016-1-3.5-1.024-4.442-2.5-1-2.738-1.606-3.5 2 4.125.76-.5 4-1-2-2 0-2.052 2.24-.5 4.5-1.702 1.124-3-.5a211 211 0 0 1 14-24q3.132-2.754 4-7a105 105 0 0 1 8-16 7.3 7.3 0 0 0-2-3q-1.54 1.937-3 0a88 88 0 0 0 6-11 157 157 0 0 0-15 25 22.8 22.8 0 0 0-4 5q-.467-1.467-2-2-3.636 1.385-6 4.5l2 1q-.298 3.451-1.5 6.5l-2-8-4 6q.048-3.147 2-6a49 49 0 0 1 5.5-8q2.625-1.739 3-5a641 641 0 0 0 27-40 689 689 0 0 0-26 36q-.305-2.317-2-4a43 43 0 0 0 0-5v-1q-2.11.71-2 3l-5 6q-.09-.814-1-1l-2 2a22.5 22.5 0 0 0-3-4 66.7 66.7 0 0 1 9-14.5l-2-1a15.3 15.3 0 0 0 1.5-4.5q1.088 2.487 3.5 1.5 2-3.286 5-5.5 3.13-1.627 4-5l-2 1a71 71 0 0 0-4-3 15 15 0 0 0-3.5 3l-.5-1a17.35 17.35 0 0 0 3.5-7l1 1 5-5q-.21-3.526-1.5-7a203 203 0 0 1 26-21.5q-5.4 1.563-10 5.5-5.04-1.936-1-5a17.34 17.34 0 0 0 7-3.5q1.794-.981 0-1.5a18.7 18.7 0 0 0-5 3q-1.142-1.337-3-2-6.986 3.994-14 8-1.794-.519 0-1.5l9.5-5.5q.648-1.65-1.5-2-4.003 1.78-8 2.5a17.34 17.34 0 0 1 7-3.5 221 221 0 0 0 18-8.5q1.857-1.035 0-1.5 1.81-2.07-1-3.5 3.256-1.76 3-5.5-5.288.231-8.5-4l-1 4a20.5 20.5 0 0 0-5.5 3q1.458.14 3 1a35.7 35.7 0 0 1-7 4q-.626-1.083-2-1.5 2.882-.54 5-2.5-3.453-2.248 1-4a10.5 10.5 0 0 1-3.5-5q-2.25 1.25-3.5 3.5-1 1-2 0v-4q5.041-.081 9-3a16.2 16.2 0 0 0-3.5-1.5 22.1 22.1 0 0 1-9.5 2v-3q-2.835-.305-4.5 2l-1-3q-1.006 1.129-2.5 1 33.984-90.736 121-133.5 44.822-20.142 93-13.5"/>
  <path style="opacity:1" fill="#5f5f5f" d="M540.5 255.5q2.947.672 1 3-1.329-1.237-1-3"/>
  <path style="opacity:1" fill="#c5c7c6" d="M702.5 255.5q2 1 0 2h-60q29.458-2.982 60-2"/>
  <path style="opacity:1" fill="#4a4a4a" d="M547.5 254.5q2.947.672 1 3-1.329-1.237-1-3"/>
  <path style="opacity:1" fill="#565656" d="M522.5 254.5q2.755.209 1 2-1.197-.686-1-2"/>
  <path style="opacity:1" fill="#d1d1d1" d="M435.5 249.5a2.43 2.43 0 0 1 2 .5 39.8 39.8 0 0 0-8 7q-4.197 2.871-9 3a96 96 0 0 1 15-10.5"/>
  <path style="opacity:1" fill="#2c2d2c" d="M702.5 254.5v1q-30.542-.982-60 2-1.356-1.063-1-3z"/>
  <path style="opacity:1" fill="#272727" d="M553.5 253.5q2.755.209 1 2-1.197-.686-1-2"/>
  <path style="opacity:1" fill="#555756" d="M345.5 254.5q7.791.133 0 2l-2-.5q1.374-.417 2-1.5"/>
  <path style="opacity:1" fill="#1a1a1a" d="M627.5 252.5q4.385.995 2 5a11.64 11.64 0 0 1-2-5"/>
  <path style="opacity:1" fill="#4a4a4a" d="M559.5 251.5q2.947.672 1 3-1.329-1.237-1-3"/>
  <path style="opacity:1" fill="#3c3c3c" d="M566.5 251.5q2.947.672 1 3-1.329-1.237-1-3"/>
  <path style="opacity:1" fill="#d4d4d4" d="M432.5 244.5a2.43 2.43 0 0 1 2 .5l-9 7q-2 1-4 0 5.08-4.527 11-7.5"/>
  <path style="opacity:1" fill="#d8d8d8" d="M461.5 233.5a16.6 16.6 0 0 0 4 2.5q-2 1 0 2-.867 2.125-3 2.5 2.038-2.264-1.5-2-4.731 1.401.5 2 2.076 1.952 4.5 0l1.5 6q-3.682-1.796-7 1 2.318 1.428 5 1-1.144 1.152-3 1.5.343.598 1 .5a5.73 5.73 0 0 0-1 3q-1.451-1.96-4-2-.5-6-1 0h-4v1q-.322 2.519 2 3-1.714 2.401 2 2a22.6 22.6 0 0 1 8-2q-1.593 1.612 0 3a6.85 6.85 0 0 1 4-1q3-2 6 0 2.302 1.932 5 0-1.237-1.329-3-1a51 51 0 0 0 4-2.5q-1.615-.705-3 .5-.18-1.63-2-2-3.875 1.112 0 2-1.063 1.356-3 1 .262-3.182-1-6 9.762-1.862 0-2h-4a4.93 4.93 0 0 1 .5-3l1 1q.417-1.374 1.5-2l-2-2h3q2.115 1.992 3.5-1a9.6 9.6 0 0 0 3 3q1.148-.105 1.5-1h2q.5 1.5 2 2-2.297 2.137 1 2-1.063 1.356-3 1 .257-4.946-2-1 2.883 2.19 2 5a31 31 0 0 1 2-2q3.672-1.46 8-1 5.754 10.755 8 23-2.549.04-4 2-.18-1.63-2-2-3.875 1.113 0 2-2.384 1.681-5-.5a61 61 0 0 1 2-5.5q.672 2.947 3 1-.186-.91-1-1 5.478-2.482.5-6-.598.342-.5 1h-3q4.137-2.2-1-2 .626-1.083 2-1.5-2.166-1.171-4 .5.186.91 1 1-2.227 3.374-6 7 1.74-2.554-2-2 1.144-1.152 3-1.5a4.93 4.93 0 0 0-3-.5q3.817-1.427 0-3a7.3 7.3 0 0 0-3 2q.686 1.197 2 1a112 112 0 0 1-5 2 3.65 3.65 0 0 0 1 1.5q-.623 3.039-3 4.5 2.331-2.092-1-2-3.875 1.113 0 2l3 2q1.874 1.917 4.5 3 .739-1.573-.5-3 .686-1.197 2-1a10.1 10.1 0 0 0 4-1.5 2.43 2.43 0 0 0-2-.5q1.063-1.356 3-1a4.93 4.93 0 0 0 .5 3q.634-2.184 2.5-1.5-1.07 2.014 1 4-1.212 2.559-4 2.5 2.331-2.092-1-2-3.875 1.113 0 2l3 2h-4q-3.438.384-6.5-1-.625 1.884-2.5 2 2.026-1.725-.5-2-1.545.504-1.5 2h-5q.322 2.518-2 3 1.74-2.554-2-2 5.879-2.228-1-3 1.577-1.083 2-3 2.712-1.225 4.5 2 2.048-1.64 1-4-2.26 1.552-4.5-.5 1.73-1.37-.5-2.5-.417 1.374-1.5 2-1.602-1.401-4-1v-1a44 44 0 0 1 3-2q-3.123-2.091-5 1-2.868-2.22-3.5-6-1.782 1.595-1.5 4a258 258 0 0 1-8-30h3q1.063 1.356 3 1l3 2q-2.217-.393-4 1 1.586.609 4 0 1.812 1.1 4 1v-4q-6.508-.183-1-1-.356-1.937 1-3a2.43 2.43 0 0 0 .5 2q2.593-.711 3.5-3"/>
  <path style="opacity:1" fill="#121212" d="M489.5 260.5h-1q-.814-.09-1-1 1.834-1.671 4-.5-1.374.417-2 1.5"/>
  <path style="opacity:1" fill="#0a0a0a" d="M454.5 258.5q7.971-.391 1.5 2-1.545-.504-1.5-2"/>
  <path style="opacity:1" fill="#1e1e1e" d="M477.5 256.5q1.763-.329 3 1-2.698 1.932-5 0 .512-1.258 2-1"/>
  <path style="opacity:1" fill="#171717" d="M465.5 255.5q2.975-.514 4 2a6.85 6.85 0 0 0-4 1q-1.593-1.388 0-3"/>
  <path style="opacity:1" fill="#151515" d="M485.5 253.5q2.217-.393 4 1l-2 1q-1.82-.37-2-2"/>
  <path style="opacity:1" fill="#2f2f2f" d="M453.5 252.5q2.682-.428 5 1-.757 2.128-3 2-2.322-.481-2-3"/>
  <path style="opacity:1" fill="#171717" d="M478.5 254.5h-2q-3.875-.888 0-2 1.82.37 2 2"/>
  <path style="opacity:1" fill="#050505" d="M484.5 249.5q7.558-.073.5 2a2.43 2.43 0 0 1-.5-2"/>
  <path style="opacity:1" fill="#1c1c1c" d="M453.5 251.5q-1.356-1.063-1-3 7.162.255 1 3"/>
  <path style="opacity:1" fill="#212121" d="M467.5 246.5q-.5 1.5-2 2-2.682.428-5-1 3.318-2.796 7-1"/>
  <path style="opacity:1" fill="#cdcdcd" d="M430.5 239.5a2.43 2.43 0 0 1 2 .5q-5.385 4.693-12 6a83 83 0 0 1 10-6.5"/>
  <path style="opacity:1" fill="#1e1e1e" d="M451.5 244.5q2.217-.393 4 1-2.361 1.697-5 .5.834-.575 1-1.5"/>
  <path style="opacity:1" fill="#5b5d5c" d="M334.5 242.5q9.836.074 0 2l-2-.5q1.374-.417 2-1.5"/>
  <path style="opacity:1" fill="#111" d="M459.5 242.5a18.5 18.5 0 0 1 6 .5q-3.569 3.213-6-.5"/>
  <path style="opacity:1" fill="#080808" d="M453.5 240.5v1q-2.414.609-4 0 1.783-1.393 4-1"/>
  <path style="opacity:1" fill="#3b3b3b" d="M450.5 238.5q-1.937.356-3-1 1.813-1.923 4 0-.186.91-1 1"/>
  <path style="opacity:1" fill="#c6c6c6" d="M429.5 233.5q2.818-.16 1 1.5-17.21 8.898-1-1.5"/>
  <path style="opacity:1" fill="#cbcbcb" d="M428.5 227.5q3.513.412 0 2.5-2.853 1.952-6 2a34 34 0 0 1 6-4.5"/>
  <path style="opacity:1" fill="#4e504f" d="M345.5 226.5q7.818-1.827 16 .5a71.5 71.5 0 0 1-16-.5"/>
  <path style="opacity:1" fill="#bcbcbc" d="M535.5 221.5a12.9 12.9 0 0 1 5 .5 28018 28018 0 0 0-32 9q12.986-6.742 27-9.5"/>
  <path style="opacity:1" fill="#e0e0e0" d="M492.5 248.5q-4.328-.46-8 1a31 31 0 0 0-2 2q.883-2.81-2-5 2.257-3.946 2 1 1.937.356 3-1 1.886-1.684-1-2-1.5-.5-2-2 3.609-1.535 0-2-1.82.37-2 2-.352.895-1.5 1a9.6 9.6 0 0 1-3-3q-1.385 2.992-3.5 1 .626-1.083 2-1.5l-2.5-.5q-2.064.276-2.5 2l2 2q-1.083.626-1.5 2l-1-1a4.93 4.93 0 0 0-.5 3h4v2q1.262 2.818 1 6 1.937.356 3-1h2q1.385-1.205 3-.5a51 51 0 0 1-4 2.5q-1.488-.258-2 1-3-2-6 0-1.025-2.514-4-2-4.15.255-8 2-3.714.401-2-2 2.243.128 3-2-2.318-1.428-5-1v-1h4q.5-6 1 0 2.549.04 4 2 3.49.38 6-2-2.318-1.428-5-1-.657.098-1-.5 1.856-.348 3-1.5 1.5-.5 2-2l-1.5-6q-2.424 1.952-4.5 0h1q2.133-.375 3-2.5-2-1 0-2a16.6 16.6 0 0 1-4-2.5q-2.398-.401-4 1-1.356 1.063-1 3-5.508.817 1 1v4q-2.188.1-4-1v-1l-3-2q.814-.09 1-1-2.187-1.923-4 0h-3a180.3 180.3 0 0 1-6.5-43 3.94 3.94 0 0 1 2-1q37.817 16.564 52.5 55"/>
  <path style="opacity:1" fill="#202020" d="M463.5 250.5q2.682-.428 5 1-2.51 2.38-6 2a5.73 5.73 0 0 1 1-3"/>
  <path style="opacity:1" fill="#191919" d="M472.5 247.5q9.762.138 0 2z"/>
  <path style="opacity:1" fill="#242424" d="M484.5 244.5q2.886.316 1 2-3.297.137-1-2"/>
  <path style="opacity:1" fill="#0d0d0d" d="M471.5 243.5q6.782-.26 1 2-1.197-.686-1-2"/>
  <path style="opacity:1" fill="#2e2e2e" d="M482.5 242.5h-2q.18-1.63 2-2 3.609.465 0 2"/>
  <path style="opacity:1" fill="#242424" d="M472.5 241.5h-3q.436-1.724 2.5-2l2.5.5q-1.374.417-2 1.5"/>
  <path style="opacity:1" fill="#0f0f0f" d="M462.5 240.5h-1q-5.231-.599-.5-2 3.538-.264 1.5 2"/>
  <path style="opacity:1" fill="#646464" d="M469.5 234.5q5.667 1.216-.5 3l-1.5-1a31 31 0 0 0 2-2"/>
  <path style="opacity:1" fill="#191919" d="M461.5 233.5q-.907 2.289-3.5 3a2.43 2.43 0 0 1-.5-2q1.602-1.401 4-1"/>
  <path style="opacity:1" fill="#252525" d="M447.5 232.5q6.132-.423 1.5 2-1.545-.504-1.5-2"/>
  <path style="opacity:1" fill="#2b2b2b" d="M466.5 231.5q2.217-.393 4 1l-2 1q-1.82-.37-2-2"/>
  <path style="opacity:1" fill="#2c2c2c" d="M456.5 229.5q7.264.968.5 3-2.525-1.014-.5-3"/>
  <path style="opacity:1" fill="#454545" d="M465.5 227.5q4.946-.257 1 2-1.197-.686-1-2"/>
  <path style="opacity:1" fill="#242424" d="M446.5 228.5q1.763-.329 3 1-2.328 1.947-3-1"/>
  <path style="opacity:1" fill="#191919" d="M454.5 226.5q6.782-.26 1 2-1.197-.686-1-2"/>
  <path style="opacity:1" fill="#666" d="M445.5 224.5q5.759.825 0 3-1.593-1.388 0-3"/>
  <path style="opacity:1" fill="#303030" d="M463.5 223.5q1.763-.329 3 1-2.328 1.947-3-1"/>
  <path style="opacity:1" fill="#0e0e0e" d="M453.5 222.5q5.615-.061.5 2a2.43 2.43 0 0 1-.5-2"/>
  <path style="opacity:1" fill="#484848" d="M444.5 220.5q4.946-.257 1 2-1.197-.686-1-2"/>
  <path style="opacity:1" fill="#7e807f" d="M431.5 218.5q2.818-.16 1 1.5-11.09 4.896-1-1.5"/>
  <path style="opacity:1" fill="#1b1b1b" d="M462.5 219.5q1.314-.197 2 1-3.462 2.06-2-1"/>
  <path style="opacity:1" fill="#181818" d="M452.5 217.5q1.314-.197 2 1-3.462 2.06-2-1"/>
  <path style="opacity:1" fill="#4d504e" d="M352.5 217.5q.352-.895 1.5-1l12.5 5.5q-7.235-1.16-14-4.5"/>
  <path style="opacity:1" fill="#252525" d="M460.5 215.5q2.755.209 1 2-1.197-.686-1-2"/>
  <path style="opacity:1" fill="#414141" d="M443.5 216.5q1.763-.329 3 1-2.328 1.947-3-1"/>
  <path style="opacity:1" fill="#4b4b4b" d="M442.5 213.5q4.946-.257 1 2-1.197-.686-1-2"/>
  <path style="opacity:1" fill="#d0d0d0" d="M531.5 205.5h-2a395 395 0 0 0-40.5 11l-1.5-.5q20.906-11.212 44-10.5"/>
  <path style="opacity:1" fill="#303030" d="M456.5 209.5q2.755.209 1 2-1.197-.686-1-2"/>
  <path style="opacity:1" fill="#343434" d="M447.5 206.5q1.314-.197 2 1-3.462 2.06-2-1"/>
  <path style="opacity:1" fill="#d4d4d4" d="M520.5 200.5h3q1.487-.257 2 1a270 270 0 0 0-37.5 10l-1.5-.5q15.758-8.913 34-10.5"/>
  <path style="opacity:1" fill="#d0d0d0" d="M503.5 194.5q1.488-.257 2 1a310 310 0 0 1-24 5.5 81 81 0 0 0 3-2.5 240 240 0 0 1 19-4"/>
  <path style="opacity:1" fill="#545655" d="M415.5 149.5q3.86 2.068 4.5 6-3.19-2.421-4.5-6"/>
  <path style="opacity:1" fill="#2d2e2e" d="M440.5 127.5q4.331 3.684 5.5 9-1.651-2.841-4-2l1 6q-3.631-3.924-4.5 0-4.035-3.217-4.5-8 7.539 10.195 4-2a7.3 7.3 0 0 1 2 3l2.5-2.5q-1.984-1.224-2-3.5"/>
  <path style="opacity:1" fill="#0d0e0e" d="M529.5 103.5q53.399 4.95 95 38-34.671-.61-71 1.5 34.755.252 69 1.5-35.536-.985-70 2-.95 2.142-4 4.5.816 1.076 2 1.5-.166.925-1 1.5 43.254.252 86 1.5-43.529-.988-86 2v3q-2 0-2 2 0 1 1 1-1.145 1.152-3 1.5 51.254.252 102 1.5-51.025-.99-101 2-1.083-.627-1.5-2-.987 2.412 1.5 3.5l-3 1a2.43 2.43 0 0 0 2 .5q1.18 2.406 4 2a1976 1976 0 0 0 108 .5q2 1 0 2-48.007.25-96 1.5.186.91 1 1a2355 2355 0 0 0 96 1q2.78-.936 5 2-.186.91-1 1-44.011-.5-88 1 .186.91 1 1 22.141.988 44.5 1 22.274-.001 43.5-2l3 3q-44.168 1.882-87 0 .726 1.922-2 3a41.5 41.5 0 0 0-8 1l-3 1.5q6.779.263 13 1.5l-4 1a10.1 10.1 0 0 0-4 1.5q3.318 1.183 6-.5 3.535.245 7-.5-.816-1.076-2-1.5-.626-1.083-2-1.5 2.101-.615 4-1.5a1723 1723 0 0 0 83-1q2.355-1.589 4 1.5-3.648 1.63 1 1.5.356 1.937-1 3 0-1-1-1a783 783 0 0 0-79 0q.186.91 1 1 39.388 1.486 79 1 3 0 3 3-37.503-.25-75 .5.816 1.076 2 1.5 36.741 1.497 74 1h4a6.85 6.85 0 0 0 1 4q-.705 1.445-2 0 0-1-1-1-35.755-1.994-72 0 .186.91 1 1 35.388 1.484 71 1 .412 3.388 3 1a12.8 12.8 0 0 0 6 3 183.5 183.5 0 0 1 19 40q-.465 2.466-3 3h-61q-.356 1.937 1 3h60a2.43 2.43 0 0 0 .5 2q1.738-1.6 2.5 1-31.516-.5-63 1a3.65 3.65 0 0 0 1 1.5q30.996.75 62 .5.814.09 1 1-31.745 1-63 2-1.257.512-1 2 32.244 1.248 65 1.5 1.128 1.006 1 2.5h-67q-.19-4.642-5-5.5a4.93 4.93 0 0 1 3-.5q.442-3.353-1-6-6.357-26.962-27-45.5a182 182 0 0 0-33 1 2877 2877 0 0 1-33 6.5l-6-3q-5.385-1.41-13 0-2.29.11-3-2 9.615-3.031 20-4.5a151.3 151.3 0 0 0-31 3.5q-1 0-1-1l16-4a91 91 0 0 0 10-2.5q-4.081-.903-8 .5v-4h2a10.1 10.1 0 0 0 4-1.5 18.5 18.5 0 0 0-6-.5v-3q-.95-1.96-6 0h-3l-2-3q14.368-1.644 1-2a4.93 4.93 0 0 1-3-.5q1.255-1.517 1-3.5a20.7 20.7 0 0 0-5 1q-4.84.264-9 2a240 240 0 0 0-19 4q-1.602-1.401-4-1a229 229 0 0 1 25-7.5 92.7 92.7 0 0 0-27 5.5q-2.18-2.645 1-4-.116-1.875-2-2.5l2-1q-4.455-1.182-6-3.5-2.77-1.61-6 0-3.913-1.415-6-5a129.4 129.4 0 0 0 20-8 15.4 15.4 0 0 1 4.5 2q1.148-.105 1.5-1a419 419 0 0 0 32-7l2 .5-3 1.5a28 28 0 0 1-4 1.5q7.484.749 15 .5v-12q1.488-10.722 1-22v-3q2-2.5 0-5a19.2 19.2 0 0 0 1-6q1.255-.166 3-1a247 247 0 0 0 2 7q1.063 1.356 3 1h1q1.063 1.356 3 1 1.602 1.401 4 1a9.86 9.86 0 0 0-1-6q-1.533.533-2 2l-2-3q-1.5.5-2 2l-2-3q-.045-1.496 1.5-2 5.814 1.855 11.5 4 2.877-.542 1-2 3.324-1.974 6-5a29 29 0 0 1-1.5-4 21.8 21.8 0 0 1-4 5q-1.588-.195-2.5-1.5 2.304-2.399 1.5-5.5l-2 4-1-2q-4.012 3.834-7.5-1 1.717-2.086 0-4l-2 3q-2.5-1.5-4-4-.878 3.547-3.5 6-.643-3.254 1.5-6-1.024-4.442-2.5-1-1.158-2.023-3.5-2.5a2.43 2.43 0 0 1 2-.5"/>
  <path style="opacity:1" fill="#3e3e3e" d="M700.5 249.5q1.356 1.063 1 3a931 931 0 0 1-61-1q30.542.982 60-2"/>
  <path style="opacity:1" fill="#dcdcdc" d="M700.5 249.5q-29.458 2.982-60 2 29.458-2.982 60-2"/>
  <path style="opacity:1" fill="#bcbcbc" d="M698.5 244.5q-14.466 1.998-30 2-15.258 0-30-1a901 901 0 0 1 60-1"/>
  <path style="opacity:1" fill="#4a4a4a" d="M698.5 244.5a901 901 0 0 0-60 1q-.814-.09-1-1 30.744-1.992 61 0"/>
  <path style="opacity:1" fill="#d9d9d9" d="M635.5 238.5q30.517-.5 61 1l-30.5 1q-15.784-.002-30.5-2"/>
  <path style="opacity:1" fill="#979797" d="M693.5 233.5q.814.09 1 1-31.244 1.992-62 0a931 931 0 0 1 61-1"/>
  <path style="opacity:1" fill="#3d3d3d" d="M693.5 233.5a931 931 0 0 0-61 1q-.814-.09-1-1 31.244-1.992 62 0"/>
  <path style="opacity:1" fill="#c5c5c5" d="M628.5 227.5a668 668 0 0 1 63 1.5l-31.5.5q-16.283-.002-31.5-2"/>
  <path style="opacity:1" fill="#acadac" d="M624.5 223.5q31.755-1.992 64 0a517 517 0 0 1-64 0"/>
  <path style="opacity:1" fill="#d3d3d3" d="M619.5 217.5q32.755-1.992 66 0a550 550 0 0 1-66 0"/>
  <path style="opacity:1" fill="#616161" d="M681.5 211.5q.814.09 1 1-34.245 1.994-68 0 33.76.496 67-1"/>
  <path style="opacity:1" fill="#acacac" d="M681.5 211.5q-33.24 1.496-67 1-.814-.09-1-1 34.245-1.994 68 0"/>
  <path style="opacity:1" fill="#ccc" d="M594.5 209.5q5.813-.623 11 1.5-6 1-12 0 .834-.575 1-1.5"/>
  <path style="opacity:1" fill="#c5c5c5" d="M606.5 206.5a1260 1260 0 0 1 71-1q1 0 1 1t-1 1q-35.612.484-71-1"/>
  <path style="opacity:1" fill="#b7b8b8" d="M589.5 204.5a41 41 0 0 1 9 .5q4.095 1.848-.5 2.5a152 152 0 0 0-11.5-1.5q1.855-.348 3-1.5"/>
  <path style="opacity:1" fill="#292a29" d="M677.5 205.5q-35.759-.497-71 1-.814-.09-1-1 36.245-1.994 72 0"/>
  <path style="opacity:1" fill="#b1b3b2" d="M586.5 198.5q4.089-.354 7 2.5a49.2 49.2 0 0 1-14 0q3.907-.585 7-2.5"/>
  <path style="opacity:1" fill="#666767" d="M575.5 194.5q.513 1.257 2 1-2.682 1.683-6 .5a10.1 10.1 0 0 1 4-1.5"/>
  <path style="opacity:1" fill="#d0d0d0" d="M579.5 193.5h3q1.184.424 2 1.5-3.465.745-7 .5-1.487.257-2-1z"/>
  <path style="opacity:1" fill="#646665" d="M512.5 192.5q-2.941 2.42-7 3-.512-1.257-2-1 4.16-1.736 9-2"/>
  <path style="opacity:1" fill="#565656" d="M670.5 194.5q-39.258-.497-78 1-.814-.09-1-1a783 783 0 0 1 79 0"/>
  <path style="opacity:1" fill="#d6d7d6" d="M577.5 189.5q.166.925 1 1.5-4.794 1.207-9-.5a41.5 41.5 0 0 1 8-1"/>
  <path style="opacity:1" fill="#909291" d="M479.5 191.5q7.924-3.982 16-4a205 205 0 0 0-14.5 5q-1.148-.105-1.5-1"/>
  <path style="opacity:1" fill="#d8d8d8" d="M667.5 189.5a1723 1723 0 0 1-83 1q-.166-.925-1-1.5 42.108-1.236 84 .5"/>
  <path style="opacity:1" fill="#c1c1c1" d="M565.5 184.5q2.405-.282 4 1.5-3 1-6 0 1.374-.417 2-1.5"/>
  <path style="opacity:1" fill="#9a9a9a" d="M575.5 184.5a1893 1893 0 0 1 87-1h1q-21.226 1.999-43.5 2a1010 1010 0 0 1-44.5-1"/>
  <path style="opacity:1" fill="#9c9d9d" d="M555.5 181.5a13.1 13.1 0 0 1 7 1q-4.419 1.732-9 .5 1.374-.417 2-1.5"/>
  <path style="opacity:1" fill="#787a79" d="M537.5 146.5h1a118 118 0 0 1-2.5 13q-.558-6.815 1.5-13"/>
  <path style="opacity:1" fill="#707271" d="M534.5 141.5q-.426 2.872 1 5a52 52 0 0 1-1.5 10q-1.225-7.776.5-15"/>
  <path style="opacity:1" fill="#cbcccc" d="M538.5 146.5h-1q-.42-7.22 2-14l1 1a195 195 0 0 0-2 13"/>
  <path style="opacity:1" fill="#d6d6d6" d="M554.5 138.5a655 655 0 0 1 62 1.5l-31 .5q-16.033-.002-31-2"/>
  <path style="opacity:1" fill="#a9a9a9" d="M535.5 146.5q-1.426-2.128-1-5a25.9 25.9 0 0 1 1-10l1 4a72 72 0 0 0-1 11"/>
  <path style="opacity:1" fill="#6e6e6e" d="M556.5 133.5a313 313 0 0 0 50 0q.814.09 1 1a338.6 338.6 0 0 1-52 0q.186-.91 1-1"/>
  <path style="opacity:1" fill="#d0d0d0" d="M606.5 133.5a313 313 0 0 1-50 0 315 315 0 0 1 50 0"/>
  <path style="opacity:1" fill="#c9c9c9" d="M557.5 127.5a290.5 290.5 0 0 1 41 1.5l-20.5.5q-10.801-.005-20.5-2"/>
  <path style="opacity:1" fill="#dfdfdf" d="M550.5 125.5q1.442 2.647 1 6h-3q.156-3.305 2-6"/>
  <path style="opacity:1" fill="#6c6c6c" d="m542.5 123.5 2 3a5.73 5.73 0 0 0-1 3q-1.937.356-3-1 2.634-1.578 2-5"/>
  <path style="opacity:1" fill="#ececec" d="M542.5 123.5q.634 3.422-2 5h-1a5.73 5.73 0 0 1 1-3q.5-1.5 2-2"/>
  <path style="opacity:1" fill="#d7d7d7" d="M543.5 129.5a5.73 5.73 0 0 1 1-3q.467-1.467 2-2a9.86 9.86 0 0 1 1 6q-2.398.401-4-1"/>
  <path style="opacity:1" fill="#4b4b4b" d="M559.5 122.5q13.5 2 27 0 .814.09 1 1a105.7 105.7 0 0 1-29 0q.186-.91 1-1"/>
  <path style="opacity:1" fill="#5b5b5b" d="m538.5 122.5 2 3a5.73 5.73 0 0 0-1 3q-1.937.356-3-1 2.634-1.578 2-5"/>
  <path style="opacity:1" fill="#dadada" d="M586.5 122.5q-13.5 2-27 0 13.308-1.935 27 0"/>
  <path style="opacity:1" fill="#cdcecd" d="M552.5 122.5q1.877 1.458-1 2a234 234 0 0 0-11.5-4q-1.545.504-1.5 2 .634 3.422-2 5-.245-3.535.5-7 .582-1.392 2-2a417 417 0 0 0 13.5 4"/>
  <path style="opacity:1" fill="#979797" d="M561.5 116.5q5 2 10 0l3 1.5a33.2 33.2 0 0 1-14-.5q.186-.91 1-1"/>
  <path style="opacity:1" fill="#e3e3e3" d="M571.5 116.5q-5 2-10 0v-3q4.984 1.488 10 3"/>
  <path style="opacity:1" fill="#141414" d="M466.5 259.5q6.9-.232 1 2-3.331.092-1-2"/>
  <path style="opacity:1" fill="#989898" d="M705.5 260.5v3q-31.004.25-62-.5a3.65 3.65 0 0 1-1-1.5q31.484-1.5 63-1"/>
  <path style="opacity:1" fill="#232323" d="M480.5 263.5h-1q-1.314.197-2-1a7.3 7.3 0 0 1 3-2q3.817 1.573 0 3"/>
  <path style="opacity:1" fill="#d3d4d3" d="M435.5 255.5a2.43 2.43 0 0 1 2 .5 94 94 0 0 1-13 10q-2 1-4 0a96 96 0 0 1 15-10.5"/>
  <path style="opacity:1" fill="#d0d0d0" d="M643.5 266.5q32.016-.5 64 1-32.484 1.5-65 1-.257-1.488 1-2"/>
  <path style="opacity:1" fill="#d7d7d7" d="M436.5 261.5a2.43 2.43 0 0 1 2 .5q-6.09 7.278-15 9a74.5 74.5 0 0 1 13-9.5"/>
  <path style="opacity:1" fill="#1b1b1b" d="M491.5 267.5h2q.814.09 1 1-2.328 1.947-3-1"/>
  <path style="opacity:1" fill="#555655" d="M332.5 269.5a35.7 35.7 0 0 0 7-4 5.6 5.6 0 0 0 3-1q1.794.519 0 1.5-7.16 4.347-15 6z"/>
  <path style="opacity:1" fill="#e0e1e1" d="M628.5 268.5q4.444-.524 7 3a13.1 13.1 0 0 1-7 1z"/>
  <path style="opacity:1" fill="#d7d7d7" d="M440.5 264.5a2.43 2.43 0 0 1 2 .5q-6.615 7.691-16 10a184 184 0 0 1 14-10.5"/>
  <path style="opacity:1" fill="#525252" d="M336.5 271.5q2.818-.16 1 1.5-2.316 1.78-5 1 2.35-.913 4-2.5"/>
  <path style="opacity:1" fill="#aaa" d="M641.5 272.5h67q.814.09 1 1-34.5 2-69 0 .186-.91 1-1"/>
  <path style="opacity:1" fill="#515251" d="M349.5 270.5q1.857.465 0 1.5a221 221 0 0 1-18 8.5 117.4 117.4 0 0 1 18-10"/>
  <path style="opacity:1" fill="#c6c6c6" d="M627.5 277.5q41.512-.5 83 1l-41.5 1q-21.275-.001-41.5-2"/>
  <path style="opacity:1" fill="#c9c9c9" d="M437.5 275.5q-3.453 3.234-8 5-.91-.186-1-1 5.7-5.343 13-7.5-1.846 2.107-4 3.5"/>
  <path style="opacity:1" fill="#e4e4e4" d="M488.5 260.5h1q5.137-.2 1 2-3.187 1.302-.5 3 2.924-.31 3.5-3-.098-.658.5-1 4.978 3.518-.5 6h-2a61 61 0 0 0-2 5.5q2.616 2.181 5 .5h2q1.451-1.96 4-2 5.277 14.388 7 30 .812 4.728-3 7.5a167.6 167.6 0 0 0-28 8q-3 1-6 0a372 372 0 0 1-18-47.5v-2q-.282-2.405 1.5-4 .632 3.78 3.5 6 .512 1.258 2 1v1q-1.877 1.458 1 2a10 10 0 0 0 3-1q1.083-.626 1.5-2 2.23 1.13.5 2.5 2.24 2.052 4.5.5 1.048 2.36-1 4-1.788-3.225-4.5-2-1.983-.255-3.5 1-.792 1.974 1.5 2 6.879.772 1 3-.814.09-1 1 1.237 1.329 3 1 2.322-.482 2-3h7q1.875-.116 2.5-2 3.062 1.384 6.5 1 .18 1.63 2 2 1.82-.37 2-2l-3-2h1q2.788.059 4-2.5-2.07-1.986-1-4-1.866-.684-2.5 1.5a4.93 4.93 0 0 1-.5-3q-1.937-.356-3 1-2 0-2 2-1.314-.197-2 1 1.239 1.427.5 3-2.626-1.083-4.5-3l-3-2h1q2.377-1.461 3-4.5a3.65 3.65 0 0 1-1-1.5 112 112 0 0 0 5-2h1a4.93 4.93 0 0 1 3 .5q-1.856.348-3 1.5-.814.09-1 1 1.237 1.329 3 1 3.773-3.626 6-7"/>
  <path style="opacity:1" fill="#242424" d="M483.5 279.5h4q-.18 1.63-2 2-1.82-.37-2-2"/>
  <path style="opacity:1" fill="#353535" d="M474.5 280.5h-2q-.045-1.496 1.5-2 2.526.275.5 2"/>
  <path style="opacity:1" fill="#313131" d="M494.5 276.5q6.132-.423 1.5 2-1.545-.504-1.5-2"/>
  <path style="opacity:1" fill="#272727" d="M464.5 275.5q-.423 1.917-2 3-2.292-.026-1.5-2 1.517-1.255 3.5-1"/>
  <path style="opacity:1" fill="#202020" d="M485.5 277.5h-1q-3.875-.887 0-2 3.331-.092 1 2"/>
  <path style="opacity:1" fill="#161616" d="M474.5 273.5q-.96 2.748-3 1 1.237-1.329 3-1"/>
  <path style="opacity:1" fill="#262626" d="M496.5 273.5h-2q-3.875-.887 0-2 1.82.37 2 2"/>
  <path style="opacity:1" fill="#1f1f1f" d="M459.5 271.5q2.398-.401 4 1-1.374.723-3 1-2.877-.542-1-2"/>
  <path style="opacity:1" fill="#1a1a1a" d="M482.5 270.5a2.43 2.43 0 0 1 2 .5 10.1 10.1 0 0 1-4 1.5q0-2 2-2"/>
  <path style="opacity:1" fill="#353535" d="M472.5 271.5h-1q-3.875-.887 0-2 3.331-.092 1 2"/>
  <path style="opacity:1" fill="#242424" d="M459.5 270.5q-1.488.258-2-1 1.877-3.091 5-1a44 44 0 0 0-3 2"/>
  <path style="opacity:1" fill="#0f0f0f" d="M480.5 265.5q3.74-.554 2 2-1.763.329-3-1 .186-.91 1-1"/>
  <path style="opacity:1" fill="#232323" d="M468.5 264.5q5.759.825 0 3-1.593-1.388 0-3"/>
  <path style="opacity:1" fill="#5f5f5f" d="M490.5 262.5h3q-.576 2.69-3.5 3-2.687-1.698.5-3"/>
  <path style="opacity:1" fill="#181818" d="M455.5 263.5a12.9 12.9 0 0 1 5 .5q-3.127 3.208-5-.5"/>
  <path style="opacity:1" fill="#404040" d="M496.5 281.5q1.763-.329 3 1-1.834 1.671-4 .5.834-.574 1-1.5"/>
  <path style="opacity:1" fill="#7d7d7d" d="M524.5 279.5q2.77-.399 2 1-3.353 1.878-7 1.5a39 39 0 0 0 5-2.5"/>
  <path style="opacity:1" fill="#202020" d="M463.5 281.5q3.74-.554 2 2-1.763.329-3-1 .186-.91 1-1"/>
  <path style="opacity:1" fill="#3e3e3e" d="M711.5 283.5a1682 1682 0 0 0-82 1q-.814-.09-1-1a864 864 0 0 1 83 0"/>
  <path style="opacity:1" fill="#cacbcb" d="m428.5 286.5 3-2q3.798-3.9 9-4.5-5.025 6.249-12 6.5"/>
  <path style="opacity:1" fill="#3e3e3e" d="M474.5 283.5q1.763-.329 3 1-2.328 1.947-3-1"/>
  <path style="opacity:1" fill="#1b1b1b" d="M485.5 284.5q6.782-.26 1 2-1.197-.686-1-2"/>
  <path style="opacity:1" fill="#c6c6c6" d="M537.5 279.5q2.818-.16 1 1.5-10.035 5.345-21 7a253 253 0 0 1 20-8.5"/>
  <path style="opacity:1" fill="#6e6e6e" d="M569.5 285.5q2.796-1.94 6 0-.686 1.197-2 1-1.602-1.401-4-1"/>
  <path style="opacity:1" fill="#c2c2c2" d="M711.5 283.5q.814.09 1 1a864 864 0 0 1-83 0 1682 1682 0 0 1 82-1"/>
  <path style="opacity:1" fill="#666867" d="M339.5 286.5q.5-1.5 2-2a18.7 18.7 0 0 1 5-3q1.794.519 0 1.5a17.34 17.34 0 0 1-7 3.5"/>
  <path style="opacity:1" fill="#252525" d="M464.5 285.5q6.132-.423 1.5 2-1.545-.504-1.5-2"/>
  <path style="opacity:1" fill="#323232" d="M497.5 286.5q2.217-.393 4 1l-2 1q-1.82-.37-2-2"/>
  <path style="opacity:1" fill="#545454" d="M475.5 287.5q4.946-.257 1 2-1.197-.686-1-2"/>
  <path style="opacity:1" fill="#b1b1b1" d="M630.5 288.5q41.512-.5 83 1l-41.5 1q-21.275-.001-41.5-2"/>
  <path style="opacity:1" fill="#1b1b1b" d="M488.5 289.5q1.314-.197 2 1-3.462 2.06-2-1"/>
  <path style="opacity:1" fill="#dcdcdc" d="M428.5 293.5q1.5-.5 2-2 4.237-3.598 9-5.5l-8 8q-1.874 1.11-3-.5"/>
  <path style="opacity:1" fill="#1c1c1c" d="M466.5 290.5q4.946-.257 1 2-1.197-.686-1-2"/>
  <path style="opacity:1" fill="#e3e3e3" d="M569.5 285.5q2.398-.401 4 1a77.1 77.1 0 0 0-24 10.5q7.924-2.088 2 3l1 .5q5.109-3.608 10-.5a3.65 3.65 0 0 0 1-1.5q-2.03-1.536-2-4a18.5 18.5 0 0 1 6 .5q8.219 5.08 17.5 2.5l1.5 1q-1.47 3.162 1 6a72.5 72.5 0 0 1 10-5.5q1.817-1.34 0-2.5-1.427 1.239-3 .5a16.1 16.1 0 0 1 5-2.5q.903-5.068 6-5.5 1.188-5.863 5-1.5 1.902-1.392 4-.5 6.193 19.647 17 37.5a96 96 0 0 0 5.5 12q3.316 12.948-8.5 8-1.581.27-3 1l-2-3a46 46 0 0 1-7 3q-1.817-1.16 0-2.5-4.292-.127-8 2.5-2.36-2.935-6-1-2.972.094-5-2-3.635 1.818-3 6 6.955 4.126 15 6 1.662 7.87 8.5 12 2.718.01 4.5-2 3.577 8.93-6 7-8.055-2.134-16 .5a73.4 73.4 0 0 1-11 4.5q-1.329 1.237-1 3a471 471 0 0 1 14.5-3 214 214 0 0 1 19.5 5v2q.7 13.52-13 10.5l-4 4q4.148.187 5 2.5 6.627-2.953 10 3 4.467 11.296-1 22a18.7 18.7 0 0 1-5 3 14.7 14.7 0 0 1-1.5-5q-1.774 1.846-3.5 0 1.635-1.663 0-3-7.43 4.936-4-2l-1-1q-3.645 3.084-8 3.5 1.87-2.241 0-4.5-3.996 4.753-10 3.5 2.567-1.7 1.5-4.5-4.628 4.47-10.5 4a18.3 18.3 0 0 1 4-6l-1-1q-4.79 4.879-11 6.5l9.5-9.5q1-1 0-2-7.716 7.707-17.5 10 4.57-3.627 7-9l-1-1a96 96 0 0 1-9 7.5q-2.316 1.78-5 1 6.675-3.638 8.5-10.5-7.423 6.575-16.5 9.5 5.11-2.609 7-8l-1-1.5q-7.32 7.154-17 9.5 7.163-4.126 9.5-11.5-4.588 5.426-11.5 4.5l4-4-2-.5a49 49 0 0 1-9 3q19.284-19.381-4-4l-1-.5a63.7 63.7 0 0 0 10-9 111 111 0 0 0-14 4.5q4.015-8.279 12-13.5-1-1-2 0a202 202 0 0 1-16 10.5q-1.532-.752-.5-2a96.2 96.2 0 0 1 17.5-15.5q-11.76 3.405-20 13l-1 .5q-1.532-.752-.5-2a138.8 138.8 0 0 1 29.5-22.5q-7.96 1.495-15 6a230 230 0 0 0-19.5 16.5q-1.886-.525-1-2 17.005-16.879 38.5-27.5-23.005 5.009-39 22.5l-1-1q17.092-18.298 40-28.5-26.793 5.284-44.5 26.5l-.5-1q5.144-9.395 14-15.5 14.142-10.553 31-16-10.626.538-20 6a90.9 90.9 0 0 0-23 17q-1 1-2 0 16.364-17.184 38-27-5.17-.288-10 2a4317 4317 0 0 1-18 8 88.2 88.2 0 0 1 24-14.5 16.5 16.5 0 0 0 5-2.5q-3.838-.412-7 1.5a5045 5045 0 0 1-23 8.5 82 82 0 0 1 14-10 60 60 0 0 1-6-.5q3.116-4.311 8-6.5-4.476.944-9-.5a31 31 0 0 1 9-5.5q-4.053-.08-8 1.5l-2-1a58 58 0 0 1 7-5.5q-10.304 2.202-2-4a6.8 6.8 0 0 1-3-1.5q2.438-2.235 5-4.5-2.184-.634-1.5-2.5a69 69 0 0 1 6.5-4.5l-4-1a65 65 0 0 1 9-6q-3.793.157-7-.5a456 456 0 0 1 39-15q3.792-1.003 0-2.5 8.952-2.42 18 0a21.5 21.5 0 0 0 5 6q-7.578.195-14 4a4.93 4.93 0 0 0 3 .5"/>
  <path style="opacity:1" fill="#262626" d="M557.5 288.5a4.93 4.93 0 0 1 3 .5q-7.686 5.54-17 6a483 483 0 0 1 14-6.5"/>
  <path style="opacity:1" fill="#222" d="M565.5 280.5q2.818-.16 1 1.5-12.065 6.35-25 9 12.021-5.415 24-10.5"/>
  <path style="opacity:1" fill="#232323" d="M557.5 279.5q2.818-.16 1 1.5-10.018 5.34-21 7 9.976-4.75 20-8.5"/>
  <path style="opacity:1" fill="#1d1e1d" d="M324.5 307.5a54.5 54.5 0 0 0-6.5 6q-1-1 0-2l9.5-9.5q-2.83-.244-4.5 2.5-.5-2.32 1.5-4-2.685-.317-5 0l6-5a3.65 3.65 0 0 0-1-1.5l5-1q4.447-4.215 10-6.5-4.04 3.064 1 5 4.6-3.937 10-5.5a203 203 0 0 0-26 21.5"/>
  <path style="opacity:1" fill="#d2d2d2" d="M625.5 294.5q44.351-.435 89 1l-44.5 1q-22.773-.001-44.5-2"/>
  <path style="opacity:1" fill="#1a1a1a" d="M599.5 300.5q1.911 1.034 0 2.5-3.293 2.06-7 1 3.32-2.424 7-3.5"/>
  <path style="opacity:1" fill="#a3a3a3" d="M625.5 300.5q45.01-.5 90 1l-45 1q-23.024-.001-45-2"/>
  <path style="opacity:1" fill="#5f6160" d="M339.5 299.5a2.43 2.43 0 0 1 2 .5L330 311.5q-1-1 0-2a133 133 0 0 0 9.5-10"/>
  <path style="opacity:1" fill="#dadada" d="M626.5 305.5q45.01-.5 90 1l-45 1q-23.024-.001-45-2"/>
  <path style="opacity:1" fill="#5e605f" d="M344.5 313.5q.797-3.066 3.5-5-.115 3.408-3.5 5"/>
  <path style="opacity:1" fill="#909191" d="M628.5 310.5h89v3q-44.003.25-88-.5-1.129-1.006-1-2.5"/>
  <path style="opacity:1" fill="#7c7e7d" d="M326.5 325.5a80.8 80.8 0 0 1 10.5-13q1 1 0 2a60.7 60.7 0 0 1-10.5 11"/>
  <path style="opacity:1" fill="#8e908f" d="M344.5 313.5q-1.379 3.884-5 6 1.379-3.884 5-6"/>
  <path style="opacity:1" fill="#d9dbda" d="M632.5 318.5q-.166-.926-1-1.5 43.509-1.25 87 .5-42.989 1.5-86 1"/>
  <path style="opacity:1" fill="#666867" d="M346.5 322.5q1.47-3.924 4.5-7-.681 4.329-4.5 7"/>
  <path style="opacity:1" fill="#545454" d="M719.5 321.5v1q-42.258-.497-84 1-.814-.09-1-1 42.488-1.5 85-1"/>
  <path style="opacity:1" fill="#dedede" d="M449.5 278.5q1.688 1.272 0 3a117 117 0 0 0 4.5 14q.574.834 1.5 1h2a4.93 4.93 0 0 1-.5 3 1049 1049 0 0 1-27.5 27q-11.206 5.397-14-7 1.493-8.004 8-13a32 32 0 0 0 4.5 5q1.706 5.805-4.5 5.5-2.286 4.674 3 5.5 6.389-1.89 9-8 1.345-1.647 2.5 0l.5-1.5-3-4.5a49 49 0 0 0-8-5.5q1.321-1.062 2-2.5a313 313 0 0 0 20-22"/>
  <path style="opacity:1" fill="#7c7c7c" d="m435.5 308.5 3 4.5-.5 1.5q-1.155-1.647-2.5 0z"/>
  <path style="opacity:1" fill="#1e1e1e" d="M435.5 300.5q7.31 2.619 5 10-5.19-3.68-5-10"/>
  <path style="opacity:1" fill="#181818" d="M439.5 295.5q3.582 1.078 4.5 5a28 28 0 0 0 1.5 5l-1 1q-4.517-4.536-5-11"/>
  <path style="opacity:1" fill="#171717" d="M442.5 290.5q1.763-.329 3 1 4.084 6.093 2 13a60.8 60.8 0 0 1-5-14"/>
  <path style="opacity:1" fill="#a9a9a9" d="M719.5 322.5v2q-42.258.497-84-1a1765 1765 0 0 1 84-1"/>
  <path style="opacity:1" fill="#787878" d="M326.5 325.5q-.87 3.373-4 5 .35-2.343 2-4z"/>
  <path style="opacity:1" fill="#c7c7c7" d="M719.5 327.5q-39.969 2.987-81 2-.814-.09-1-1a1682 1682 0 0 1 82-1"/>
  <path style="opacity:1" fill="#a3a5a4" d="M346.5 322.5a641 641 0 0 1-27 40l1-4a689 689 0 0 1 26-36"/>
  <path style="opacity:1" fill="#5c5c5c" d="M527.5 337.5q-.513-1.258-2-1 3.162-1.912 7-1.5a16.5 16.5 0 0 1-5 2.5"/>
  <path style="opacity:1" fill="#575958" d="M341.5 343.5q1.264-4.524 4.5-8-.562 4.845-4.5 8"/>
  <path style="opacity:1" fill="#b3b4b4" d="M339.5 319.5a285 285 0 0 1-19 26 143.2 143.2 0 0 1 19-26"/>
  <path style="opacity:1" fill="#373737" d="M591.5 342.5q3.71.67.5 3a4.93 4.93 0 0 1-.5-3"/>
  <path style="opacity:1" fill="#0b0b0b" d="M632.5 318.5q42.746 1.248 86 1.5.834.574 1 1.5-42.512-.5-85 1 .186.91 1 1 41.742 1.497 84 1-2 1.5 0 3a1682 1682 0 0 0-82 1q.186.91 1 1 40.755 1 82 2-40.245 1-80 2 39.468 2.987 80 2 .924 1.947 0 3-39.513-.5-79 1 .186.91 1 1 39.255 1 79 2-39.745 1-79 2-.814.09-1 1l40 1q20.526-.001 40-2 1.314.197 2-1 .031-3.152-1-6.5a19.6 19.6 0 0 1 2-3.5v5a72.4 72.4 0 0 1-.5 12q-1.006 1.129-2.5 1a1084 1084 0 0 0-93 0q46.49 1.5 93 1 .764 1.262-2 1.5.834.574 1 1.5-46.756-.497-93 1-.814.09-1 1l95 2q-47.746 1-95 2 46.974 2.989 95 2 1.083-.626 1.5-2l.5 1.5q-2.492 1.649-2 3.5-47.526-.989-94 2 46.754 1 94 2-47.246 1-94 2-2 1 0 2-.09.814-1 1a6.8 6.8 0 0 1-1.5-3 3.65 3.65 0 0 1-1.5 1 65 65 0 0 1-7-2q9.577 1.93 6-7-1.782 2.01-4.5 2-6.838-4.13-8.5-12-8.045-1.874-15-6-.635-4.182 3-6 2.028 2.094 5 2 3.64-1.935 6 1 3.708-2.627 8-2.5-1.817 1.34 0 2.5a46 46 0 0 0 7-3l2 3q1.419-.73 3-1 11.816 4.948 8.5-8a96 96 0 0 1-5.5-12q.042-3.124-2-5.5a4.93 4.93 0 0 1 3-.5"/>
  <path style="opacity:1" fill="#b4b4b4" d="M720.5 338.5q-38.467 2.987-78 2-.814-.09-1-1 39.487-1.5 79-1"/>
  <path style="opacity:1" fill="silver" d="M640.5 333.5q40.532-.987 80 2-40.532.987-80-2"/>
  <path style="opacity:1" fill="#cccecd" d="M642.5 344.5h79q-19.474 1.999-40 2l-40-1q.186-.91 1-1"/>
  <path style="opacity:1" fill="#979998" d="M320.5 345.5q.11 2.29-2 3-.11-2.29 2-3"/>
  <path style="opacity:1" fill="#7c7e7d" d="M341.5 343.5a88 88 0 0 1-6 11 75.7 75.7 0 0 1-9 14 157 157 0 0 1 15-25"/>
  <path style="opacity:1" fill="#868887" d="M318.5 348.5v1q-.5 1.5-2 2-.11-2.29 2-3"/>
  <path style="opacity:1" fill="#a1a1a1" d="M721.5 351.5v1q-46.51.5-93-1 46.746-1.995 93 0"/>
  <path style="opacity:1" fill="#545655" d="M316.5 351.5a17.34 17.34 0 0 1-3.5 7q-1.66 1.818-1.5-1z"/>
  <path style="opacity:1" fill="#ccc" d="M720.5 355.5q.814.09 1 1a1108 1108 0 0 1-94 0 2164 2164 0 0 1 93-1"/>
  <path style="opacity:1" fill="#515352" d="M408.5 353.5q1.643 4.825-.5 10a23.8 23.8 0 0 1 .5-10"/>
  <path style="opacity:1" fill="#aeaeae" d="M392.5 361.5a9.86 9.86 0 0 1 6 1l-3 1q-2.295-.21-3-2"/>
  <path style="opacity:1" fill="#bbb" d="M626.5 361.5q48.026-.989 95 2-48.026.989-95-2"/>
  <path style="opacity:1" fill="#7f8180" d="M319.5 362.5q-.375 3.261-3 5 .375-3.261 3-5"/>
  <path style="opacity:1" fill="#6d6d6d" d="m432.5 365.5-4 2-3-1.5a25 25 0 0 1 7-.5"/>
  <path style="opacity:1" fill="#dfdfdf" d="M439.5 471.5q-14.49.516-24-10-2.456-3.594-3.5-8a69.3 69.3 0 0 1 1.5-23l3-2a52 52 0 0 1 0-11q4.318-1.955 2-6l4-2a39 39 0 0 0-5-5.5q2.41-.173 4.5 1.5l1.5-1a32.4 32.4 0 0 1-3-4.5 7.5 7.5 0 0 0 5-.5 74 74 0 0 0-7-7.5q3.543.133 6.5 2.5l1.5-1a32.4 32.4 0 0 1-3-4.5q2.44.293 5 0l-7-7q3.788 1.356 8 1a45.5 45.5 0 0 0-10-8q5.22 1.88 11 1l-7-5 8-1a10.5 10.5 0 0 0-3-2.5l4-2q-1.824-2.927-5-4.5 7.352-.87 1-5 7.479-1.698 0-5 3.544-.884 3-4.5 5.452-.233 1-3.5a10.3 10.3 0 0 0 4-1.5l-4-4a16.64 16.64 0 0 0 5-6l-1-2q3.47-3.931 4-9 2.276-.016 3.5-2a396 396 0 0 1-4 62 295.5 295.5 0 0 1-25 60q-6.553 22.854 16.5 28.5 8.444 1.45 17 2a41 41 0 0 1-9 .5"/>
  <path style="opacity:1" fill="#b9b9b9" d="M721.5 366.5q-46.474 2.989-94 2 46.474-2.989 94-2"/>
  <path style="opacity:1" fill="#d1d2d1" d="M392.5 366.5q4.833-.588 9 1.5a25.2 25.2 0 0 1-10 0q.834-.574 1-1.5"/>
  <path style="opacity:1" fill="#e3e3e3" d="M510.5 409.5q1.314-.197 2 1a20 20 0 0 1-3.5 4q-1.578 5.69 4.5 6a19.3 19.3 0 0 0 6.5-3l1.5 1q-2.63 3.3-7 3.5-1.425 3.885-5 6 3.865.909 7-1.5 2.25-.071 3 2a65 65 0 0 0-9 6l1 1a215 215 0 0 1 12.5-6q3.512.76 1.5 3.5a35.2 35.2 0 0 1-10 5q-1.817 1.34 0 2.5 7.34-3.691 15-5.5l-14 9q9.967-2.082 19-7.5l1 1a256 256 0 0 1-18 12.5q9.686-3.333 19-8.5l1 1-21 14 1 1a394 394 0 0 1 20-10.5q1.702-1.124 3 .5a563 563 0 0 1-27 17l1 1a244 244 0 0 1 27-12.5l-21 14.5 1 1a250 250 0 0 1 20-8.5 417 417 0 0 0-23 15q1.5 1 3 0 8.815-4.918 18-8a402 402 0 0 1-23 14q6.483.26 12-3.5l1 1a48.3 48.3 0 0 1-11 7.5q-1.817 1.34 0 2.5a192 192 0 0 0 16-9.5q1.248-1.032 2 .5a224 224 0 0 1-14 10.5q3.95-.38 8 0a15 15 0 0 0-3 3.5 4.46 4.46 0 0 0 2 1.5q-6.054 4.77-13 7 2.844-1.597.5-2.5a25.3 25.3 0 0 1-6 3q-1.647-1.326-1.5-3-4.173 3.385-9 2l2-2-1-1a47 47 0 0 0-8 4.5q-2.166 1.171-4-.5 1.509-1.344 0-2a186 186 0 0 1-3 2 2.43 2.43 0 0 1-2-.5q1.817-1.34 0-2.5a20 20 0 0 1-4.5 3 311 311 0 0 1-17.5-3.5 80.6 80.6 0 0 1 9-8q-6.217 2.626-12 7-1.702 1.124-3-.5a2862 2862 0 0 1 13-10.5q1.817-1.34 0-2.5a195 195 0 0 0-13 10.5q-2.316 1.78-5 1l19-17-1-.5-21 16-1-1a425 425 0 0 1 18-16.5q-2.112-.473-4 1a378 378 0 0 0-14.5 11.5l-.5-1a683 683 0 0 1 22.5-21q1.032-1.248-.5-2a524 524 0 0 0-17.5 13q-.598-.343-.5-1a5.73 5.73 0 0 1 1-3 109 109 0 0 0 17-13.5q-1-1-2 0a60.4 60.4 0 0 1-13.5 9.5q-1-2 0-4l14.5-12.5q-1-1-2 0a272 272 0 0 0-12.5 9.5q-1-1.5 0-3a376 376 0 0 0 13.5-12.5q-6.636 2.564-12 8-1.475.886-2-1l12-12q-5.718 2.379-11 6.5l-1-1.5a58.5 58.5 0 0 1 10-11q-1.5-1-3 0a96 96 0 0 1-7.5 5.5q-1-1.5 0-3a45.3 45.3 0 0 0 7.5-8.5q-1-1-2 0-10.75 11.323-3-1.5l-1-1-3 2-1-1.5a158 158 0 0 1 10-11.5q-.752-1.532-2-.5a59 59 0 0 1-8 6.5q-1.624-1.298-.5-3 4.403-3.34 6-8a21.7 21.7 0 0 1-6.5 4q-1.532-.752-.5-2a59 59 0 0 0 6.5-8l-1-1a20 20 0 0 0-4 3.5q-1.248 1.032-2-.5a148 148 0 0 1 10-10.5q-5.572 1.665-10.5 5.5l-.5-1.5a236 236 0 0 1 14-11.5l-1-1-12 7-1-1.5q7.706-8.104 18-12.5-1.834-1.671-4-.5l-12 8q-1.248 1.032-2-.5 9.399-8.712 21-14.5-2-1-4 0a231 231 0 0 0-16 8.5q-1.532-.752-.5-2a89 89 0 0 1 22.5-14.5 85.6 85.6 0 0 1 13 3 55 55 0 0 1 6 6.5l-5 2a14.1 14.1 0 0 0 5.5 4q.892 2.098-.5 4l1.5 1a605 605 0 0 1 3.5-3q1.69 2.654-1.5 4l-.5 3.5a83 83 0 0 0 2 6.5h5l-2 6q4.244-.263 5 4a32 32 0 0 0 5-4.5 4.93 4.93 0 0 1 3-.5q-1.878 4.879-7 7 .58 1.83 2.5 2a22.4 22.4 0 0 0 4.5-3"/>
  <path style="opacity:1" fill="#c5c6c5" d="M390.5 372.5a43.1 43.1 0 0 1 13 1l-6.5 1q-3.915-.05-6.5-2"/>
  <path style="opacity:1" fill="#1e1e1e" d="M724.5 338.5q3.755 42.462-6 84-2.549.04-4 2-43.972-2.988-89-2 45.375-.774 91-2.5a4034 4034 0 0 1-90-1.5q45.01.5 90-1-.186-.91-1-1-1.577-1.083-2-3h3q1 0 1-1a2.43 2.43 0 0 0 2-.5q-1.711-1.112 0-2.5-47.246-1-94-2 46.527.988 92-2 1.15-1.008 2-2.5-.342-.598-1-.5-23.229-1.999-47.5-2-24.271.001-47.5 2-1.937-.356-3 1-3.373-5.953-10-3-.852-2.313-5-2.5l4-4q13.7 3.02 13-10.5a88 88 0 0 0 3 10q47.01.5 94-1a408999 408999 0 0 1-93-2q47.01.5 94-1-.186-.91-1-1 .166-.926 1-1.5a4308 4308 0 0 1-93-1.5q186-1 0-2a4216 4216 0 0 1 92-1.5q4.153-1.252 2-4.5-48.526-.989-96 2-3.01-1.768-1 1.5a2.43 2.43 0 0 1-2 .5 214 214 0 0 0-19.5-5 471 471 0 0 0-14.5 3q-.329-1.763 1-3a73.4 73.4 0 0 0 11-4.5q7.945-2.634 16-.5a65 65 0 0 0 7 2 3.65 3.65 0 0 0 1.5-1 6.8 6.8 0 0 0 1.5 3q.91-.186 1-1 188-1 0-2 46.754-1 94-2-47.246-1-94-2 47.526.989 94-2-.492-1.851 2-3.5l-.5-1.5q-.417 1.374-1.5 2-46.974-2.989-95-2 47.254-1 95-2l-95-2q.186-.91 1-1a1108 1108 0 0 0 94 0q-.186-.91-1-1-.166-.926-1-1.5 2.764-.238 2-1.5v-1q1.494.129 2.5-1 .749-5.979.5-12"/>
  <path style="opacity:1" fill="#cdcdcd" d="M627.5 372.5q188 1 0 2-2-1 0-2"/>
  <path style="opacity:1" fill="#3c3e3d" d="M326.5 368.5a37 37 0 0 1-2 5.5 3.94 3.94 0 0 0 1 2q-4.098.597-5.5 4.5.33-3.694 2.5-7a22.8 22.8 0 0 1 4-5"/>
  <path style="opacity:1" fill="#696b6a" d="M332.5 373.5q-.868 4.246-4 7 .868-4.246 4-7"/>
  <path style="opacity:1" fill="#656565" d="M543.5 375.5q2.755.209 1 2-1.197-.686-1-2"/>
  <path style="opacity:1" fill="#909090" d="M721.5 377.5q.128 1.494-1 2.5-47.754 1.246-95-.5 47.474-2.989 96-2"/>
  <path style="opacity:1" fill="#414342" d="M347.5 381.5a72 72 0 0 1-8 14 54 54 0 0 1 4-9 3.65 3.65 0 0 0-1-1.5q7.567-7.862 11-18.5 1.083-.626 1.5-2-2.053 9.121-7.5 17"/>
  <path style="opacity:1" fill="#8c8c8c" d="M389.5 378.5a57.2 57.2 0 0 1 15 1l-7.5 1q-4.393-.037-7.5-2"/>
  <path style="opacity:1" fill="#575958" d="M355.5 383.5a22.4 22.4 0 0 1 2.5-8q.396 4.559-2.5 8"/>
  <path style="opacity:1" fill="#020202" d="M721.5 377.5q2.153 3.248-2 4.5-46.254.252-92 1.5-2 1 0 2 46.246 1.248 93 1.5-.834.574-1 1.5-47.026-.988-93 2 46.254 1 93 2-46.99 1.5-94 1a88 88 0 0 1-3-10v-2a2.43 2.43 0 0 0 2-.5q-2.01-3.268 1-1.5a1507 1507 0 0 0 95 .5q1.128-1.006 1-2.5"/>
  <path style="opacity:1" fill="#434544" d="M342.5 373.5q-1.905 6.345-6 11 1.863-6.233 6-11"/>
  <path style="opacity:1" fill="#0f100f" d="M452.5 269.5a372 372 0 0 0 18 47.5q3 1 6 0a167.6 167.6 0 0 1 28-8q3.812-2.772 3-7.5 1.467-.467 2-2-2.207-4.61 2.5-7l5 3 1.5-.5q-3.729-1.057 0-2.5 3.207.657 7 .5a65 65 0 0 0-9 6l4 1a69 69 0 0 0-6.5 4.5q-.684 1.866 1.5 2.5a377 377 0 0 0-5 4.5 6.8 6.8 0 0 0 3 1.5q-8.304 6.202 2 4a58 58 0 0 0-7 5.5l2 1q3.947-1.58 8-1.5a31 31 0 0 0-9 5.5q4.524 1.444 9 .5-4.884 2.189-8 6.5 2.764.383 6 .5a82 82 0 0 0-14 10 5045 5045 0 0 0 23-8.5q1.487-.258 2 1a88.2 88.2 0 0 0-24 14.5 4317 4317 0 0 0 18-8q4.83-2.288 10-2-21.636 9.816-38 27 1 1 2 0a90.9 90.9 0 0 1 23-17q9.374-5.462 20-6-16.858 5.447-31 16-8.856 6.105-14 15.5l.5 1q17.707-21.216 44.5-26.5-22.908 10.202-40 28.5l1 1q15.995-17.491 39-22.5-21.495 10.621-38.5 27.5-.886 1.475 1 2a230 230 0 0 1 19.5-16.5q7.04-4.505 15-6a138.8 138.8 0 0 0-29.5 22.5q-1.032 1.248.5 2l1-.5q8.24-9.595 20-13a96.2 96.2 0 0 0-17.5 15.5q-1.032 1.248.5 2a202 202 0 0 0 16-10.5q1-1 2 0-7.985 5.221-12 13.5a111 111 0 0 1 14-4.5 63.7 63.7 0 0 1-10 9l1 .5q23.284-15.381 4 4-2.158 1.514-4-1-2.235 2.814-5 2-3.09 1.966-6.5 0-1.038 1.405.5 2a22.4 22.4 0 0 1-4.5 3q-1.92-.17-2.5-2 5.122-2.121 7-7a4.93 4.93 0 0 0-3 .5 32 32 0 0 1-5 4.5q-.756-4.263-5-4l2-6h-5a83 83 0 0 1-2-6.5l.5-3.5q3.19-1.346 1.5-4a605 605 0 0 0-3.5 3l-1.5-1q1.392-1.902.5-4a14.1 14.1 0 0 1-5.5-4l5-2a55 55 0 0 0-6-6.5 85.6 85.6 0 0 0-13-3 89 89 0 0 0-22.5 14.5q-1.032 1.248.5 2a231 231 0 0 1 16-8.5q2-1 4 0-11.601 5.788-21 14.5.752 1.532 2 .5l12-8q2.166-1.171 4 .5-10.294 4.396-18 12.5l1 1.5 12-7 1 1a236 236 0 0 0-14 11.5l.5 1.5q4.928-3.835 10.5-5.5a148 148 0 0 0-10 10.5q.752 1.532 2 .5a20 20 0 0 1 4-3.5l1 1a59 59 0 0 1-6.5 8q-1.032 1.248.5 2a21.7 21.7 0 0 0 6.5-4q-1.597 4.66-6 8-1.124 1.702.5 3a59 59 0 0 0 8-6.5q1.248-1.032 2 .5a158 158 0 0 0-10 11.5l1 1.5 3-2 1 1q-7.75 12.823 3 1.5 1-1 2 0a45.3 45.3 0 0 1-7.5 8.5q-1 1.5 0 3a96 96 0 0 0 7.5-5.5q1.5-1 3 0a58.5 58.5 0 0 0-10 11l1 1.5q5.282-4.121 11-6.5l-12 12q.525 1.886 2 1 5.364-5.436 12-8a376 376 0 0 1-13.5 12.5q-1 1.5 0 3a272 272 0 0 1 12.5-9.5q1-1 2 0L454 466.5q-1 2 0 4a60.4 60.4 0 0 0 13.5-9.5q1-1 2 0a109 109 0 0 1-17 13.5q1.135-4.608-1.5-9-.75 1.75-2.5 2.5a7.3 7.3 0 0 1 3 2q-5.787 3.819-12 1.5a41 41 0 0 0 9-.5 162 162 0 0 1-17-2q-23.053-5.646-16.5-28.5a295.5 295.5 0 0 0 25-60 396 396 0 0 0 4-62q-1.224 1.984-3.5 2-2.436-.21-3.5 2l-1-1q-2.629 3.387-6.5 5a1049 1049 0 0 0 27.5-27 4.93 4.93 0 0 0 .5-3 325 325 0 0 0-7-19q-.91.186-1 1a313 313 0 0 1-20 22q-.305-2.835 2-4.5a10.3 10.3 0 0 1-4-1.5q.186-.91 1-1 1.126 1.61 3 .5l8-8q-4.763 1.902-9 5.5v-3q-1.763.329-3-1 .186-.91 1-1 6.975-.251 12-6.5-5.202.6-9 4.5a39 39 0 0 0-5-2.5q.85-1.492 2-2.5.09.814 1 1 4.547-1.766 8-5 2.7 2.325 6.5 3 .926-1.423-.5-2.5l2.5-2.5q2.62 5.222 6.5 1-3.726-2.804 0-5"/>
  <path style="opacity:1" fill="#d4d4d4" d="M465.5 362.5q1.884-.058 3 1.5a98 98 0 0 0-19 13q-1.248 1.032-2-.5a25.5 25.5 0 0 1 4-4.5 149 149 0 0 0 14-9.5"/>
  <path style="opacity:1" fill="#d0d0d0" d="M461.5 358.5q3.074.309 1 2.5a138 138 0 0 0-13 9q-1.248 1.032-2-.5 7.028-5.535 14-11"/>
  <path style="opacity:1" fill="#d8d8d8" d="M457.5 355.5q3.513.412 0 2.5a113 113 0 0 0-8.5 5.5q-.76-2.244 1.5-3.5a786 786 0 0 0 7-4.5"/>
  <path style="opacity:1" fill="#e1e1e1" d="M459.5 303.5q4.216 3.67-.5 7-1 1.5 0 3 1.256-2.26 3.5-1.5a32.8 32.8 0 0 0-6 9l2.5 10.5 4-4 .5 1-5 6 1 1q9.52-6.867 11 5.5-1.018 3.786-4 6.5l1 1a31.4 31.4 0 0 1 7-3.5 68 68 0 0 0 5.5-8.5 20.5 20.5 0 0 1 2.5 4.5q-2.305 1.665-2 4.5a12.9 12.9 0 0 1 5 .5q-1.255 1.517-1 3.5 4.827.226 1 2.5 5.216 5.527 1.5 12.5-3.601 1.653-7.5.5-20.238-8.24-25.5-29.5-3.873-13.619 0-27 3.492-1.745 5.5-5"/>
  <path style="opacity:1" fill="#5a5a5a" d="M463.5 340.5q1.914 1.329 0 3-1.593-1.388 0-3"/>
  <path style="opacity:1" fill="#2c2c2c" d="M461.5 335.5q3.235.83-.5 3-.705-1.615.5-3"/>
  <path style="opacity:1" fill="#c7c7c7" d="M462.5 321.5q1.314-.197 2 1-6.167 8.144-2-1m0-7q2.947.672 1 3-1.329-1.237-1-3"/>
  <path style="opacity:1" fill="#4c4c4c" d="M472.5 309.5q1.763-.329 3 1-2.328 1.947-3-1"/>
  <path style="opacity:1" fill="#505050" d="M481.5 306.5q4.946-.257 1 2-1.197-.686-1-2"/>
  <path style="opacity:1" fill="#4f4f4f" d="M491.5 303.5q1.763-.329 3 1-2.328 1.947-3-1"/>
  <path style="opacity:1" fill="#3a3a3a" d="M470.5 304.5q1.763-.329 3 1-2.328 1.947-3-1"/>
  <path style="opacity:1" fill="#343434" d="M480.5 302.5q4.946-.257 1 2-1.197-.686-1-2"/>
  <path style="opacity:1" fill="#2d2d2d" d="M499.5 301.5q2.755.209 1 2-1.197-.686-1-2"/>
  <path style="opacity:1" fill="#333" d="M468.5 300.5q1.763-.329 3 1-2.328 1.947-3-1"/>
  <path style="opacity:1" fill="#1c1c1c" d="M490.5 299.5q5.615-.061.5 2a2.43 2.43 0 0 1-.5-2"/>
  <path style="opacity:1" fill="#4e4e4e" d="M468.5 295.5q4.946-.257 1 2-1.197-.686-1-2"/>
  <path style="opacity:1" fill="#606060" d="M476.5 292.5q1.763-.329 3 1-2.328 1.947-3-1"/>
  <path style="opacity:1" fill="#2b2b2b" d="M498.5 292.5q1.763-.329 3 1-2.328 1.947-3-1"/>
  <path style="opacity:1" fill="#8f9090" d="M449.5 278.5q.09-.814 1-1a325 325 0 0 1 7 19h-2q-1.31-8.481-6-15 1.688-1.728 0-3"/>
  <path style="opacity:1" fill="#191919" d="M446.5 284.5q1.875.116 2.5 2a35.5 35.5 0 0 1 3.5 12h-3a40.7 40.7 0 0 1-3-14"/>
  <path style="opacity:1" fill="#171717" d="M449.5 281.5q4.69 6.519 6 15-.926-.166-1.5-1a117 117 0 0 1-4.5-14"/>
  <path style="opacity:1" fill="#d7d7d7" d="M389.5 383.5a65 65 0 0 1 16 1l-8 1q-4.635-.032-8-2"/>
  <path style="opacity:1" fill="#616161" d="M615.5 384.5q1.63.18 2 2l-1 2q-1.393-1.783-1-4"/>
  <path style="opacity:1" fill="#d6d6d6" d="M627.5 383.5q186 1 0 2-2-1 0-2"/>
  <path style="opacity:1" fill="#707271" d="M355.5 383.5q-.35 4.563-3 8l1-6z"/>
  <path style="opacity:1" fill="#191919" d="M590.5 384.5q3.768 1.074 0 3-1.593-1.388 0-3"/>
  <path style="opacity:1" fill="#5a5a5a" d="M618.5 385.5q3.528 1.564.5 4a8.4 8.4 0 0 1-.5-4"/>
  <path style="opacity:1" fill="#575958" d="M336.5 384.5q-.868 4.246-4 7 .868-4.246 4-7"/>
  <path style="opacity:1" fill="#5c5c5c" d="M546.5 386.5q2.755.209 1 2-1.197-.686-1-2"/>
  <path style="opacity:1" fill="#2c2c2c" d="M595.5 386.5q1.314-.197 2 1-1.523 4.001-5 2 1.905-1.182 3-3"/>
  <path style="opacity:1" fill="#a9a9a9" d="M719.5 388.5q.814.09 1 1-46.99 1.5-94 1 45.974-2.988 93-2"/>
  <path style="opacity:1" fill="#d1d1d1" d="M388.5 388.5a82 82 0 0 1 18 1l-9 1q-5.12-.026-9-2"/>
  <path style="opacity:1" fill="#6a6a6a" d="M533.5 387.5q2.755.209 1 2-7.37 2.054-1-2"/>
  <path style="opacity:1" fill="#1b1b1b" d="M600.5 389.5q1.314-.197 2 1-2.3 1.854-5 1.5a81 81 0 0 0 3-2.5"/>
  <path style="opacity:1" fill="#424242" d="M540.5 390.5q3.713.37 0 2-1.444-.705 0-2"/>
  <path style="opacity:1" fill="#232323" d="M605.5 391.5q5.452.233 1 3.5-3.293 2.06-7 1a42.7 42.7 0 0 0 6-4.5"/>
  <path style="opacity:1" fill="#e3e3e3" d="M494.5 392.5q2.755.209 1 2-1.197-.686-1-2"/>
  <path style="opacity:1" fill="#7c7e7d" d="M352.5 391.5a169 169 0 0 1-8 24q2.54-12.623 8-24"/>
  <path style="opacity:1" fill="#d2d2d2" d="M387.5 394.5q40 1 0 2z"/>
  <path style="opacity:1" fill="#c2c2c2" d="M499.5 394.5q2.755.209 1 2-1.197-.686-1-2"/>
  <path style="opacity:1" fill="#d4d4d4" d="M623.5 394.5q48.01-.5 96 1a1569 1569 0 0 1-97 .5q.834-.574 1-1.5"/>
  <path style="opacity:1" fill="#6a6c6b" d="M353.5 407.5a35.5 35.5 0 0 1 3.5-12q-.364 6.465-3.5 12"/>
  <path style="opacity:1" fill="#d5d7d6" d="M505.5 396.5q1.763-.329 3 1-2.328 1.947-3-1"/>
  <path style="opacity:1" fill="#3d3d3d" d="M541.5 398.5q3.713.37 0 2-1.444-.705 0-2"/>
  <path style="opacity:1" fill="#4b4d4c" d="M382.5 390.5a212 212 0 0 1-4.5 27 291 291 0 0 1 2.5-24q1.203-2.178 1.5-5 .696.891.5 2"/>
  <path style="opacity:1" fill="#bdbebd" d="M512.5 398.5h3q.059 2.788-2.5 4-2.652-1.773-.5-4"/>
  <path style="opacity:1" fill="#3c3c3c" d="M548.5 399.5q3.713.37 0 2-1.444-.705 0-2"/>
  <path style="opacity:1" fill="#9f9f9f" d="M387.5 400.5q10.625-.939 20 2-10.548.495-21-1 .186-.91 1-1"/>
  <path style="opacity:1" fill="#a4a4a4" d="M718.5 402.5h-95q23.229-1.999 47.5-2 24.271.001 47.5 2"/>
  <path style="opacity:1" fill="#3e403f" d="M339.5 395.5q-1.539 5.879-5.5 11 1.128-6.255 5.5-11"/>
  <path style="opacity:1" fill="#cdcdcd" d="M717.5 405.5q-45.473 2.988-92 2 45.473-2.988 92-2"/>
  <path style="opacity:1" fill="#dbdbdb" d="M406.5 405.5q.814.09 1 1a111 111 0 0 1-21 1q9.375-2.939 20-2"/>
  <path style="opacity:1" fill="#cfd1d0" d="M516.5 407.5q-4.946.257-1-2 1.197.686 1 2"/>
  <path style="opacity:1" fill="#6e706f" d="M353.5 407.5a61.4 61.4 0 0 1-3 13 1835 1835 0 0 1-9.5 33 272 272 0 0 1 6.5-29 335 335 0 0 1 6-17"/>
  <path style="opacity:1" fill="#0d0e0e" d="M619.5 425.5q.626 1.083 2 1.5 46.254.252 92 1.5-47.026-.988-93 2-3.753 1.918-7.5 0-1.512 2.639-4.5 3.5a2.43 2.43 0 0 0 2 .5q50.244 1.498 101 1-53.805.8-108 2.5 53.754.25 107 1.5-54.509-.5-109 1 .186.91 1 1-1.65 1.587-4 2.5.342.598 1 .5v1q-1.257.512-1 2a2960 2960 0 0 0 109 3h-1q-54.524-.99-108 2-3.434 1.434-5 5a4.46 4.46 0 0 0 2 1.5l-4 2 1.5 1.5q1.7-2.567 4.5-1.5l-2 1q2.288 1.514 5 1.5a342.5 342.5 0 0 0 45-1.5q-22.494-.75-45-.5a1558 1558 0 0 0 50-2.5 1339 1339 0 0 1-52-1.5q26.548.98 52-2a59 59 0 0 0 3-2q1.721.476 2.5 2 8.268-4.538 15 2 .417-1.374 1.5-2 7.686 1.993 16.5 2 8.814-.007 16.5-2-.166-.926-1-1.5 1.988.223 3.5-.5.315 2.337 1.5 4-25.098 76.314-89 124.5-85.896 58.442-183 21-56.77-26.025-92-77.5 3.96.681 7 3.5 1.035 4.044 4.5 6.5 2.592-1.278.5-3 5.648-2.55 12-4h1q2.217.393 4-1 1.562-5.457 5-1a639 639 0 0 0-15.5 14q-.901 2.197 1.5 3 12.73-14.754 31-21 1.356-1.063 1-3-2.398-.401-4 1a20.7 20.7 0 0 0-5 1q.356-1.937-1-3l1-2q5.6-1.982 11.5 0a9.5 9.5 0 0 1 2.5-1.5 1570 1570 0 0 1-56-1.5q.186-.91 1-1a563 563 0 0 0 58 .5l2-1q-27.495-.75-55-.5 28.024-1.046 56.5-2 2.843.173 5 2l1.5-3v-1q1.5-.5 2-2-.166-.926-1-1.5 7.865.654 13.5-4.5 1.038-1.405-.5-2v-1q.258-1.488-1-2 1.767-2.249 5-3-.186-.91-1-1a1157 1157 0 0 0-68-1 1190 1190 0 0 1 69-1 10.2 10.2 0 0 1 3 3 514 514 0 0 1-3 4q7.088 7.05 17 9.5 54.817 10.945 110 2.5a66.2 66.2 0 0 0 13-3.5 110 110 0 0 0-17 2.5q-36.59 3.764-73 0a2.43 2.43 0 0 1 .5-2 19.6 19.6 0 0 0 3.5-2q1.473-.961 3-2 1.509.656 0 2 1.834 1.671 4 .5a47 47 0 0 1 8-4.5l1 1-2 2q4.827 1.385 9-2-.147 1.674 1.5 3a25.3 25.3 0 0 0 6-3q2.344.903-.5 2.5 6.946-2.23 13-7a4.46 4.46 0 0 1-2-1.5 15 15 0 0 1 3-3.5 42.3 42.3 0 0 0-8 0 224 224 0 0 0 14-10.5q-.752-1.532-2-.5a192 192 0 0 1-16 9.5q-1.817-1.16 0-2.5a48.3 48.3 0 0 0 11-7.5l-1-1q-5.517 3.76-12 3.5a402 402 0 0 0 23-14q-9.185 3.082-18 8-1.5 1-3 0a417 417 0 0 1 23-15 250 250 0 0 0-20 8.5l-1-1 21-14.5a244 244 0 0 0-27 12.5l-1-1a563 563 0 0 0 27-17q-1.298-1.624-3-.5a394 394 0 0 0-20 10.5l-1-1 21-14-1-1q-9.314 5.167-19 8.5a256 256 0 0 0 18-12.5l-1-1q-9.033 5.418-19 7.5l14-9q-7.66 1.809-15 5.5-1.817-1.16 0-2.5a35.2 35.2 0 0 0 10-5q2.012-2.74-1.5-3.5a215 215 0 0 0-12.5 6l-1-1a65 65 0 0 1 9-6q-.75-2.071-3-2-3.135 2.409-7 1.5 3.575-2.115 5-6 4.37-.2 7-3.5l-1.5-1a19.3 19.3 0 0 1-6.5 3q-6.078-.31-4.5-6a20 20 0 0 0 3.5-4q-.686-1.197-2-1-1.538-.595-.5-2 3.41 1.966 6.5 0 2.765.814 5-2 1.842 2.514 4 1a49 49 0 0 0 9-3l2 .5-4 4q6.912.926 11.5-4.5-2.337 7.374-9.5 11.5 9.68-2.346 17-9.5l1 1.5q-1.89 5.391-7 8 9.077-2.925 16.5-9.5-1.825 6.862-8.5 10.5 2.684.78 5-1a96 96 0 0 0 9-7.5l1 1q-2.43 5.373-7 9 9.784-2.293 17.5-10 1 1 0 2l-9.5 9.5q6.21-1.621 11-6.5l1 1a18.3 18.3 0 0 0-4 6q5.872.47 10.5-4 1.067 2.8-1.5 4.5 6.004 1.253 10-3.5 1.87 2.259 0 4.5 4.355-.416 8-3.5l1 1q-3.43 6.936 4 2 1.635 1.337 0 3 1.726 1.846 3.5 0a14.7 14.7 0 0 0 1.5 5 18.7 18.7 0 0 0 5-3"/>
  <path style="opacity:1" fill="#c5c7c6" d="M520.5 407.5q2.243-.128 3 2-2.844 1.709-3-2"/>
  <path style="opacity:1" fill="#3e3e3e" d="M626.5 411.5q22.494-1 45.5-1 23.273.001 45.5 2 0 1-1 1-44.472-2.988-90-2"/>
  <path style="opacity:1" fill="#b6b6b6" d="M386.5 411.5q11.12-.942 21 2-11.12.942-21-2"/>
  <path style="opacity:1" fill="#adadad" d="M516.5 411.5q2.755.209 1 2-1.197-.686-1-2"/>
  <path style="opacity:1" fill="#b9b9b9" d="M626.5 411.5q45.528-.988 90 2h-3q-44.03.988-87-2"/>
  <path style="opacity:1" fill="#4d4d4d" d="M590.5 413.5q2.755.209 1 2-1.197-.686-1-2"/>
  <path style="opacity:1" fill="#494b4a" d="M368.5 406.5a266 266 0 0 1-7 27 213 213 0 0 1 3-18 339 339 0 0 0 5.5-20 34.8 34.8 0 0 1-1.5 11"/>
  <path style="opacity:1" fill="#d0d0d0" d="M511.5 416.5q1.126-1.61 3-.5-1.278 2.592-3 .5"/>
  <path style="opacity:1" fill="#717372" d="M523.5 414.5q2.755.209 1 2-1.197-.686-1-2"/>
  <path style="opacity:1" fill="#b7b7b7" d="M407.5 416.5q-9.88 2.942-21 2 9.88-2.942 21-2"/>
  <path style="opacity:1" fill="#bababa" d="M715.5 416.5q.814.09 1 1-44.99 1.5-90 1 43.972-2.988 89-2"/>
  <path style="opacity:1" fill="#373737" d="M501.5 417.5q2.755.209 1 2-7.37 2.054-1-2"/>
  <path style="opacity:1" fill="#181818" d="M508.5 421.5a2.43 2.43 0 0 1 2 .5l-4 4q-1.838.845-3-1 2.6-1.784 5-3.5"/>
  <path style="opacity:1" fill="#cacaca" d="M386.5 422.5q10.625-.939 20 2-10.625.939-20-2"/>
  <path style="opacity:1" fill="#7d7f7e" d="M562.5 422.5q2.755.209 1 2-1.197-.686-1-2"/>
  <path style="opacity:1" fill="#6c6e6d" d="M344.5 415.5a19.2 19.2 0 0 1-1 6 180 180 0 0 0-5 18h-1q2.131-12.546 7-24"/>
  <path style="opacity:1" fill="#6e706f" d="M569.5 425.5q2.755.209 1 2-1.197-.686-1-2"/>
  <path style="opacity:1" fill="#b6b8b7" d="M530.5 426.5q3.752.017.5 2a2.43 2.43 0 0 1-.5-2"/>
  <path style="opacity:1" fill="#999" d="M386.5 428.5q10.625-.939 20 2-10.548.495-21-1 .186-.91 1-1"/>
  <path style="opacity:1" fill="#777" d="m416.5 428.5-3 2q-.814-.09-1-1 1.783-1.393 4-1"/>
  <path style="opacity:1" fill="#9c9c9c" d="M713.5 428.5q-45.974 2.988-93 2 45.974-2.988 93-2"/>
  <path style="opacity:1" fill="#050505" d="M623.5 402.5h95q.658-.098 1 .5-.85 1.492-2 2.5-46.527-.988-92 2 46.754 1 94 2-1.711 1.388 0 2.5a2.43 2.43 0 0 1-2 .5q-22.227-1.999-45.5-2-23.006 0-45.5 1 42.97 2.988 87 2 .423 1.917 2 3-45.028-.988-89 2 44.746 1.248 90 1.5a4384 4384 0 0 1-91 2.5q-.166.926-1 1.5 44.997.75 90 .5 1.451-1.96 4-2a192.7 192.7 0 0 1-9 35q-1.185-1.663-1.5-4-1.512.723-3.5.5.834.574 1 1.5h-33q-1.083.626-1.5 2-6.732-6.538-15-2-.779-1.524-2.5-2a59 59 0 0 1-3 2q-26.548-.98-52 2 25.743 1.248 52 1.5a1558 1558 0 0 1-50 2.5v2q-2.712.014-5-1.5l2-1q-2.8-1.067-4.5 1.5l-1.5-1.5 4-2a4.46 4.46 0 0 1-2-1.5q1.566-3.566 5-5 33.026.381 66-1 10.488 1 21.5 1 11.299-.004 21.5-2a2960 2960 0 0 1-109-3 3026 3026 0 0 0 110-1q.814-.09 1-1-54.991-1.5-110-1-.658.098-1-.5 2.35-.913 4-2.5 54.524.99 108-2a5692 5692 0 0 0-107-1.5q54.195-1.7 108-2.5.814-.09 1-1a1309 1309 0 0 0-102 0 2.43 2.43 0 0 1-2-.5q2.988-.861 4.5-3.5 3.747 1.918 7.5 0 47.026.988 93-2a4216 4216 0 0 0-92-1.5q-1.374-.417-2-1.5 5.467-10.704 1-22 1.063-1.356 3-1"/>
  <path style="opacity:1" fill="#cacaca" d="M625.5 422.5q45.028-.988 89 2-45.003.25-90-.5.834-.574 1-1.5"/>
  <path style="opacity:1" fill="#cdcfce" d="M711.5 435.5q-50.756.498-101-1a1309 1309 0 0 1 102 0q-.186.91-1 1"/>
  <path style="opacity:1" fill="#d1d2d1" d="M402.5 433.5h4q-4.647 1.982-10.5 2l-10.5-1a73 73 0 0 1 17-1"/>
  <path style="opacity:1" fill="#4a4c4b" d="M371.5 409.5h1a386 386 0 0 1-7.5 38q2.75-19.011 6.5-38"/>
  <path style="opacity:1" fill="#545554" d="M406.5 439.5q-11.12-.942-21 2-1.356-1.063-1-3 11.278-.488 22 1"/>
  <path style="opacity:1" fill="#b3b3b3" d="M406.5 439.5q-9.88 2.942-21 2 9.88-2.942 21-2"/>
  <path style="opacity:1" fill="#b5b5b5" d="M710.5 439.5q-53.476 2.99-108 2-.814-.09-1-1 54.491-1.5 109-1"/>
  <path style="opacity:1" fill="#505251" d="M361.5 413.5a478 478 0 0 1-9.5 42 1774 1774 0 0 1 8.5-45 128 128 0 0 0 2.5-8q.47 5.636-1.5 11"/>
  <path style="opacity:1" fill="#bbb" d="M406.5 446.5q-11.278.488-22-1 5.226-.998 11-1 6.098.017 11 2"/>
  <path style="opacity:1" fill="#bfbfbf" d="M599.5 444.5q55.009-.5 110 1-.186.91-1 1-54.756.498-109-1z"/>
  <path style="opacity:1" fill="#484a49" d="M353.5 422.5q1 0 1 1a247 247 0 0 1-7.5 30 342 342 0 0 1 6.5-31"/>
  <path style="opacity:1" fill="#343434" d="M599.5 445.5q54.244 1.498 109 1a3026 3026 0 0 1-110 1q-.257-1.488 1-2"/>
  <path style="opacity:1" fill="#404241" d="M361.5 433.5a156 156 0 0 1-5.5 24q.949-12.505 5.5-24"/>
  <path style="opacity:1" fill="#c4c4c4" d="M383.5 450.5q11.544-.496 23 1-.186.91-1 1a133 133 0 0 1-23-1q.186-.91 1-1"/>
  <path style="opacity:1" fill="#ccc" d="M706.5 450.5a442 442 0 0 1-42 1 1236 1236 0 0 1-66 1q53.476-2.99 108-2"/>
  <path style="opacity:1" fill="#b3b3b3" d="M706.5 450.5h1q-10.201 1.996-21.5 2-11.012 0-21.5-1a442 442 0 0 0 42-1"/>
  <path style="opacity:1" fill="#353736" d="M337.5 439.5h1l-5.5 22q.636-11.434 4.5-22"/>
  <path style="opacity:1" fill="#6c6e6d" d="M547.5 454.5q4.946-.257 1 2-1.197-.686-1-2"/>
  <path style="opacity:1" fill="#a9abaa" d="M650.5 455.5q-25.452 2.98-52 2 25.452-2.98 52-2"/>
  <path style="opacity:1" fill="#d1d3d2" d="M672.5 455.5h33q-7.686 1.993-16.5 2-8.814-.007-16.5-2"/>
  <path style="opacity:1" fill="#848685" d="M407.5 455.5v3h-26v-3z"/>
  <path style="opacity:1" fill="#dadada" d="M658.5 458.5q5.537-.793 9.5 3 1.384 6.121-5 6l-3.5-1q11.79-2.521 0-4.5-1.255-1.517-1-3.5"/>
  <path style="opacity:1" fill="#bcbebd" d="M380.5 461.5q15.087-.96 29 2-15.087.96-29-2"/>
  <path style="opacity:1" fill="#bbbdbc" d="M600.5 461.5q22.506-.25 45 .5a342.5 342.5 0 0 1-45 1.5z"/>
  <path style="opacity:1" fill="#b1b3b2" d="M684.5 464.5q2.405-.282 4 1.5-3.482 1.255-7 1a81 81 0 0 0 3-2.5"/>
  <path style="opacity:1" fill="#afafaf" d="M604.5 466.5a290 290 0 0 1 34 1l-17 1q-9.062-.006-17-2"/>
  <path style="opacity:1" fill="#d5d5d5" d="M413.5 467.5a153.7 153.7 0 0 1-35 0 153.7 153.7 0 0 1 35 0"/>
  <path style="opacity:1" fill="#4b4b4b" d="M378.5 467.5a153.7 153.7 0 0 0 35 0q.814.09 1 1a171.7 171.7 0 0 1-37 0q.186-.91 1-1"/>
  <path style="opacity:1" fill="#dcdcdc" d="M670.5 467.5v4h4v4q1.937.356 3-1 3.624 2.202 8 2v3a12.9 12.9 0 0 1 5 .5q-20.874 19.595-47 8l1.5-.5q9.615 3.097 19.5 1a32 32 0 0 1-4-2.5l2-1a23 23 0 0 1-5-2 43 43 0 0 0 9-2 34.8 34.8 0 0 1-10-2l6-2q-4-1.5 0-3-3.177-.39-5-3 6.985-.17 13-3.5"/>
  <path style="opacity:1" fill="#515252" d="M670.5 467.5q1.356 1.063 1 3h4q-.514 2.975 2 4-1.063 1.356-3 1v-4h-4z"/>
  <path style="opacity:1" fill="#d2d2d2" d="M375.5 472.5q24.144-.705 48 1.5l-24 .5q-12.543-.003-24-2"/>
  <path style="opacity:1" fill="#ccc" d="M612.5 473.5q8.728-1.729 18-.5-8.815 2.706-18 .5"/>
  <path style="opacity:1" fill="#d7d9d8" d="M542.5 474.5q1.314-.197 2 1-3.462 2.06-2-1"/>
  <path style="opacity:1" fill="#6b6b6b" d="M371.5 478.5q37.755-1.994 76 0-.186.91-1 1a1407 1407 0 0 0-75-1"/>
  <path style="opacity:1" fill="#b0b2b1" d="M549.5 475.5q2.782-.342 2.5 2-4.212 2.04-2.5-2"/>
  <path style="opacity:1" fill="#9b9b9b" d="M371.5 478.5q37.758-.497 75 1-18.494 1-37.5 1-19.278-.002-37.5-2"/>
  <path style="opacity:1" fill="#dcdcdc" d="M542.5 479.5q2.782-.342 2.5 2-6.154 2.506-2.5-2"/>
  <path style="opacity:1" fill="#d0d0d0" d="M444.5 483.5a2.43 2.43 0 0 1-.5 2q-38.322.455-76.5-1a1483 1483 0 0 1 77-1"/>
  <path style="opacity:1" fill="#aeaeae" d="M549.5 482.5q3.768 1.074 0 3-1.593-1.388 0-3"/>
  <path style="opacity:1" fill="#dedede" d="M536.5 484.5q2.322.482 2 3-6.21.816-2-3"/>
  <path style="opacity:1" fill="#b5b5b5" d="M364.5 489.5q34.259-.496 68 1a601 601 0 0 1-69 0q.186-.91 1-1"/>
  <path style="opacity:1" fill="#868887" d="M620.5 492.5q2.217-.393 4 1-2.361 1.697-5 .5.834-.574 1-1.5"/>
  <path style="opacity:1" fill="#dbdbdb" d="M428.5 494.5q1.258.512 1 2-35.259.497-70-1a1190 1190 0 0 1 69-1"/>
  <path style="opacity:1" fill="#414141" d="M359.5 495.5q34.741 1.497 70 1v1q-35.514.5-71-1 .186-.91 1-1"/>
  <path style="opacity:1" fill="#171717" d="M487.5 502.5a19.6 19.6 0 0 1-3.5 2 2.43 2.43 0 0 0-.5 2q-21.926-.228-41-10.5a51 51 0 0 1-4-5.5q-1.025.544-2 1a10.2 10.2 0 0 0-3-3 15.6 15.6 0 0 0 6-1.5 2668 2668 0 0 1-73-1.5q.186-.91 1-1 38.178 1.455 76.5 1a2.43 2.43 0 0 0 .5-2q-.197-1.314 1-2 1.388 1.712 2.5 0l1-5q1.006 1.129 2.5 1-.098.657.5 1a524 524 0 0 1 17.5-13q1.532.752.5 2a683 683 0 0 0-22.5 21l.5 1a378 378 0 0 1 14.5-11.5q1.888-1.473 4-1a425 425 0 0 0-18 16.5l1 1 21-16 1 .5-19 17q2.684.78 5-1 6.283-5.535 13-10.5 1.817 1.16 0 2.5a2862 2862 0 0 0-13 10.5q1.298 1.624 3 .5 5.783-4.374 12-7a80.6 80.6 0 0 0-9 8 311 311 0 0 0 17.5 3.5 20 20 0 0 0 4.5-3q1.817 1.16 0 2.5a2.43 2.43 0 0 0 2 .5"/>
  <path style="opacity:1" fill="#d9dada" d="M679.5 492.5q3.513.412 0 2.5a23 23 0 0 1-5 2 147.8 147.8 0 0 1-31 2.5 36.2 36.2 0 0 1 8-2.5l18-1q5.328-1.317 10-3.5"/>
  <path style="opacity:1" fill="#919191" d="M531.5 496.5q1.91.865 0 2-2.366 1.71-5 1.5 2.6-1.784 5-3.5"/>
  <path style="opacity:1" fill="#2a2a2a" d="M355.5 500.5q35.255-1.994 71 0-.186.91-1 1a1225 1225 0 0 0-70-1"/>
  <path style="opacity:1" fill="#bbbdbc" d="M605.5 497.5q1.911 1.034 0 2.5-3 1-6 0 3.528-.36 6-2.5"/>
  <path style="opacity:1" fill="#b6b8b7" d="M618.5 499.5q2.217-.393 4 1l-2 1q-1.82-.37-2-2"/>
  <path style="opacity:1" fill="#c5c5c5" d="M355.5 500.5q35.259-.497 70 1-17.64.985-35.5 1-17.78-.002-34.5-2"/>
  <path style="opacity:1" fill="#d4d4d4" d="M675.5 499.5q3.64 1.169 0 3.5-15.73 4.918-32 4.5 4.482-3.078 10-3.5l14-1q4.464-1.057 8-3.5"/>
  <path style="opacity:1" fill="#a8aaa9" d="M599.5 504.5a8.4 8.4 0 0 1 4 .5q-3.226 2.842-7 1.5a44 44 0 0 0 3-2"/>
  <path style="opacity:1" fill="#aaa" d="M417.5 505.5q-.5 1.5-2 2-32.26.496-64-1a1090 1090 0 0 1 66-1"/>
  <path style="opacity:1" fill="#858685" d="M560.5 507.5q-1.602-1.401-4-1a110 110 0 0 1 17-2.5 66.2 66.2 0 0 1-13 3.5"/>
  <path style="opacity:1" fill="#626262" d="M351.5 506.5q31.74 1.496 64 1v1q-32.516.5-65-1 .186-.91 1-1"/>
  <path style="opacity:1" fill="#d9d9d9" d="M483.5 506.5q36.41 3.764 73 0 2.398-.401 4 1-55.183 8.445-110-2.5-9.912-2.45-17-9.5a514 514 0 0 0 3-4q.975-.456 2-1a51 51 0 0 0 4 5.5q19.074 10.272 41 10.5"/>
  <path style="opacity:1" fill="#b6b6b6" d="M616.5 506.5q3.375-.479 6 1.5-3.615 2.8-7 0 .834-.574 1-1.5"/>
  <path style="opacity:1" fill="#9a9c9b" d="M597.5 510.5a8.4 8.4 0 0 1 4 .5q-4.022 3.105-9 2a39.5 39.5 0 0 1 5-2.5"/>
  <path style="opacity:1" fill="#dadada" d="M669.5 508.5q2.818-.16 1 1.5a23 23 0 0 1-5 2 183 183 0 0 1-22 2 22.7 22.7 0 0 1 7-3q9.89-.028 19-2.5"/>
  <path style="opacity:1" fill="#d1d1d1" d="M352.5 511.5q27.505-.25 55 .5l-2 1a563 563 0 0 1-58-.5q2.128-1.426 5-1"/>
  <path style="opacity:1" fill="#a2a3a2" d="M572.5 510.5q3.535-.245 7 .5-7.194 3.28-15 3a102 102 0 0 0 8-3.5"/>
  <path style="opacity:1" fill="#bdbebd" d="M612.5 514.5a41 41 0 0 1 9 .5q-5.077 3.11-9-.5"/>
  <path style="opacity:1" fill="#616161" d="M345.5 517.5a463 463 0 0 1 43-1l-1 2h-1a421 421 0 0 0-41-1"/>
  <path style="opacity:1" fill="#afb1b0" d="M594.5 516.5a8.4 8.4 0 0 1 4 .5q-3.672 2.418-8 2a51 51 0 0 1 4-2.5"/>
  <path style="opacity:1" fill="#b8b9b9" d="M569.5 516.5a32.5 32.5 0 0 1 8 .5q-6.481 1.749-13 3.5-1.794-.519 0-1.5 2.987-.56 5-2.5"/>
  <path style="opacity:1" fill="#d7d7d7" d="M345.5 517.5q20.765-.494 41 1-3.425.162-6 2.5-16.5 1-33 0a18.5 18.5 0 0 1-2-3.5"/>
  <path style="opacity:1" fill="#dbdbdb" d="M651.5 517.5a98.4 98.4 0 0 1 14 .5 98 98 0 0 1-21 3q3.32-2.424 7-3.5"/>
  <path style="opacity:1" fill="#7d7d7d" d="M393.5 520.5q1.602-1.401 4-1 .356 1.937-1 3-.482-2.322-3-2"/>
  <path style="opacity:1" fill="#7a7b7b" d="M460.5 521.5q.876-3.662 4-4.5-1.242 2.988-4 4.5"/>
  <path style="opacity:1" fill="#6e6f6f" d="M438.5 522.5q.797-3.066 3.5-5-.115 3.408-3.5 5"/>
  <path style="opacity:1" fill="#3c3e3d" d="M426.5 521.5q2.817 1.607 5 2a31.2 31.2 0 0 1-4.5 6q-.5-2.32 1.5-4-1.695-1.683-2-4"/>
  <path style="opacity:1" fill="#3b3c3c" d="M473.5 529.5q2.138-6.36-3-2a44 44 0 0 1 4.5-7q.724 1.422.5 3a4.93 4.93 0 0 1 3 .5q-1.745 3.493-5 5.5"/>
  <path style="opacity:1" fill="#dbdddc" d="M610.5 521.5a61 61 0 0 1 11 .5q-2.682 1.632-6 1.5-3.21-.084-5-2"/>
  <path style="opacity:1" fill="#404241" d="M504.5 530.5q1.299-2.466 1.5-5-2.99.057-5.5 3a44 44 0 0 1 4.5-7q2.189 4.414 5 1-.828 5.108-5.5 8"/>
  <path style="opacity:1" fill="#969696" d="M540.5 525.5q.278-2.544 2.5-4 .419 2.869-2.5 4"/>
  <path style="opacity:1" fill="#b9b9b9" d="M566.5 521.5a41 41 0 0 1 9 .5 67.5 67.5 0 0 1-16 3 118 118 0 0 1 7-3.5"/>
  <path style="opacity:1" fill="#afb1b0" d="M593.5 522.5a4.93 4.93 0 0 1 3 .5q-4.13 2.658-9 2a41.4 41.4 0 0 1 6-2.5"/>
  <path style="opacity:1" fill="#979897" d="M417.5 518.5q.814.09 1 1a96.3 96.3 0 0 1-12.5 16q-1-1 0-2 6.49-7.005 11.5-15"/>
  <path style="opacity:1" fill="#979797" d="M528.5 526.5q.278-2.544 2.5-4 .419 2.869-2.5 4"/>
  <path style="opacity:1" fill="#414242" d="M514.5 531.5q.128-2.243-2-3a514 514 0 0 1-4 3 55 55 0 0 1 5.5-8 6.55 6.55 0 0 1 3 3l3-3 .5 1a42.5 42.5 0 0 1-6 7"/>
  <path style="opacity:1" fill="#898989" d="M533.5 527.5q1.47-3.924 4.5-7-.681 4.329-4.5 7"/>
  <path style="opacity:1" fill="#959696" d="M363.5 527.5q1.423-.979 3.5-1 2.522.162 3.5 2h-1q-2.648-1.442-6-1"/>
  <path style="opacity:1" fill="#dadada" d="M393.5 520.5q2.518-.322 3 2-18.27 6.246-31 21-2.401-.803-1.5-3a639 639 0 0 1 15.5-14 59 59 0 0 1 9-5 20.7 20.7 0 0 1 5-1"/>
  <path style="opacity:1" fill="#757776" d="M438.5 522.5q-1.31 3.579-4.5 6 .64-3.931 4.5-6"/>
  <path style="opacity:1" fill="#6d6d6d" d="M438.5 531.5q2.793-6.062 7.5-11-2.115 6.408-7.5 11"/>
  <path style="opacity:1" fill="#5b5d5c" d="M446.5 528.5a27.6 27.6 0 0 1 3.5-6q.223 4.044-3.5 6"/>
  <path style="opacity:1" fill="#a1a1a1" d="M460.5 521.5a39.7 39.7 0 0 1-9 12 39.7 39.7 0 0 1 9-12"/>
  <path style="opacity:1" fill="#434343" d="m458.5 536.5 1-4v-2q2.643-1.143 3-4a44 44 0 0 1 4.5-7q.926 1.423-.5 2.5a4.46 4.46 0 0 1 2 1.5q-3.941 7.415-10 13"/>
  <path style="opacity:1" fill="#cdcdcd" d="M651.5 524.5q5.025-.247 10 .5a334 334 0 0 1-17 4.5q-1.794-.519 0-1.5 3.853-1.347 7-3.5"/>
  <path style="opacity:1" fill="#a0a0a0" d="M540.5 525.5q-.357 2.857-3 4 .357-2.857 3-4"/>
  <path style="opacity:1" fill="#cecece" d="M363.5 527.5q3.352-.442 6 1-6.352 1.45-12 4-1.314.197-2-1 3.213-3.607 8-4"/>
  <path style="opacity:1" fill="#afafaf" d="M462.5 526.5q-.357 2.857-3 4 .357-2.857 3-4"/>
  <path style="opacity:1" fill="#ababab" d="M528.5 526.5q-2.793 6.063-7.5 11 2.115-6.408 7.5-11"/>
  <path style="opacity:1" fill="#acadac" d="M590.5 528.5q1.762-.329 3 1-4.347 2.022-9 1.5a219 219 0 0 0 6-2.5"/>
  <path style="opacity:1" fill="#b1b1b1" d="M608.5 528.5a113 113 0 0 1 15 .5q-7.079 3.46-15 2-1.647-1.155 0-2.5"/>
  <path style="opacity:1" fill="#898989" d="M470.5 527.5q-.357 2.857-3 4 .357-2.857 3-4"/>
  <path style="opacity:1" fill="#a5a5a5" d="M533.5 527.5q-3.3 6.57-8.5 12 .066-2.668 2-5 2.578-4.182 6.5-7"/>
  <path style="opacity:1" fill="#818181" d="M446.5 528.5q-.357 2.857-3 4 .357-2.857 3-4"/>
  <path style="opacity:1" fill="#959595" d="M486.5 532.5q.278-2.544 2.5-4 .419 2.869-2.5 4"/>
  <path style="opacity:1" fill="#989898" d="M500.5 528.5q-.357 2.857-3 4 .357-2.857 3-4"/>
  <path style="opacity:1" fill="#858585" d="M473.5 529.5q-.357 2.857-3 4 .357-2.857 3-4"/>
  <path style="opacity:1" fill="#aeaeae" d="M539.5 533.5q.278-2.544 2.5-4 .419 2.869-2.5 4"/>
  <path style="opacity:1" fill="#cbcccb" d="M559.5 529.5q5.025-.247 10 .5-8.393 2.648-17 3z"/>
  <path style="opacity:1" fill="#787878" d="M490.5 534.5q.278-2.544 2.5-4 .419 2.869-2.5 4"/>
  <path style="opacity:1" fill="#a1a1a1" d="M514.5 531.5q.11 2.29-2 3-.11-2.29 2-3"/>
  <path style="opacity:1" fill="#969696" d="M517.5 534.5q1.47-3.924 4.5-7-.681 4.329-4.5 7"/>
  <path style="opacity:1" fill="#9c9c9c" d="M467.5 531.5q-.357 2.857-3 4 .357-2.857 3-4"/>
  <path style="opacity:1" fill="#999" d="M477.5 538.5q1.608-4.695 5.5-8 1 1 0 2a33 33 0 0 1-5.5 6"/>
  <path style="opacity:1" fill="#989898" d="M508.5 531.5q-.357 2.857-3 4 .357-2.857 3-4"/>
  <path style="opacity:1" fill="#9c9c9c" d="M443.5 532.5q-.357 2.857-3 4 .357-2.857 3-4"/>
  <path style="opacity:1" fill="#a2a2a2" d="M486.5 532.5q-.357 2.857-3 4 .357-2.857 3-4m11 0a39.7 39.7 0 0 1-9 12 39.7 39.7 0 0 1 9-12"/>
  <path style="opacity:1" fill="#d4d4d4" d="M650.5 532.5q3.535-.245 7 .5a57.3 57.3 0 0 1-13 3q2.898-2.188 6-3.5"/>
  <path style="opacity:1" fill="#828282" d="M451.5 533.5q-.278 2.544-2.5 4-.419-2.869 2.5-4"/>
  <path style="opacity:1" fill="#989898" d="M470.5 533.5q-.357 2.857-3 4 .357-2.857 3-4"/>
  <path style="opacity:1" fill="#919191" d="M504.5 530.5q-1.4 4.305-5 7 1.4-4.305 5-7"/>
  <path style="opacity:1" fill="#a2a2a2" d="M537.5 529.5q-1.543 5.086-6 8a27.7 27.7 0 0 1 6-8"/>
  <path style="opacity:1" fill="#b2b4b3" d="M586.5 534.5q2.682-.428 5 1-4.889 1.899-10 1.5 2.987-.56 5-2.5"/>
  <path style="opacity:1" fill="#9e9e9e" d="M606.5 536.5q8.227-1.727 17-.5-.816 1.075-2 1.5-7.207-1.481-15-1"/>
  <path style="opacity:1" fill="#989998" d="M414.5 531.5q1.447 1.831-.5 4l-10 12q-1-1 0-2a70.7 70.7 0 0 0 10.5-14"/>
  <path style="opacity:1" fill="#a0a0a0" d="M459.5 530.5v2a45.5 45.5 0 0 1-5.5 6l-.5-1a42.5 42.5 0 0 1 6-7"/>
  <path style="opacity:1" fill="#aaa" d="M505.5 535.5q-.357 2.857-3 4 .357-2.857 3-4"/>
  <path style="opacity:1" fill="#a6a6a6" d="M512.5 534.5q-.357 2.857-3 4 .357-2.857 3-4"/>
  <path style="opacity:1" fill="#999" d="M421.5 539.5q.278-2.544 2.5-4 .419 2.869-2.5 4"/>
  <path style="opacity:1" fill="#9e9e9e" d="M438.5 531.5a24.2 24.2 0 0 1-7 9 24.2 24.2 0 0 1 7-9"/>
  <path style="opacity:1" fill="#a0a0a0" d="M464.5 535.5a27.7 27.7 0 0 1-6 8q1.543-5.086 6-8"/>
  <path style="opacity:1" fill="#9c9c9c" d="M467.5 544.5a229 229 0 0 1 11.5-16q-3.848 9.13-11.5 16"/>
  <path style="opacity:1" fill="#acacac" d="M483.5 536.5q-.357 2.857-3 4 .357-2.857 3-4"/>
  <path style="opacity:1" fill="#9f9f9f" d="M490.5 534.5a122.3 122.3 0 0 1-16 21 122.3 122.3 0 0 1 16-21"/>
  <path style="opacity:1" fill="#cacaca" d="M606.5 536.5q7.793-.481 15 1a40.9 40.9 0 0 1-17 0q.686-1.197 2-1"/>
  <path style="opacity:1" fill="#a5a5a5" d="M440.5 536.5q-.357 2.857-3 4 .357-2.857 3-4"/>
  <path style="opacity:1" fill="#9b9b9b" d="M458.5 536.5q-1.543 5.086-6 8a27.7 27.7 0 0 1 6-8"/>
  <path style="opacity:1" fill="#8d8e8d" d="M539.5 533.5q-1.75 5.47-6.5 9-1-1 0-2 3.275-3.61 6.5-7"/>
  <path style="opacity:1" fill="#ababab" d="M467.5 537.5q-.357 2.857-3 4 .357-2.857 3-4"/>
  <path style="opacity:1" fill="#909090" d="M499.5 537.5q-.357 2.857-3 4 .357-2.857 3-4"/>
  <path style="opacity:1" fill="#cbcbcb" d="M554.5 538.5a41 41 0 0 1 9 .5 106.2 106.2 0 0 1-22 4q6.433-2.969 13-4.5"/>
  <path style="opacity:1" fill="#a9a9a9" d="M477.5 538.5q-.357 2.857-3 4 .357-2.857 3-4"/>
  <path style="opacity:1" fill="#a4a4a4" d="M509.5 538.5a24.2 24.2 0 0 1-7 9 24.2 24.2 0 0 1 7-9"/>
  <path style="opacity:1" fill="#a0a0a0" d="M517.5 534.5a27.7 27.7 0 0 1-6 8q1.543-5.086 6-8"/>
  <path style="opacity:1" fill="#676767" d="M531.5 537.5q-.797 3.066-3.5 5 .115-3.408 3.5-5"/>
  <path style="opacity:1" fill="#b1b1b1" d="M421.5 539.5q-.357 2.857-3 4 .357-2.857 3-4"/>
  <path style="opacity:1" fill="#9b9b9b" d="M427.5 535.5q.814.09 1 1a96.3 96.3 0 0 1-12.5 16q-1-1 0-2 6.49-7.005 11.5-15"/>
  <path style="opacity:1" fill="#aaa" d="M502.5 539.5q-.357 2.857-3 4 .357-2.857 3-4"/>
  <path style="opacity:1" fill="#ababab" d="M437.5 540.5q-.357 2.857-3 4 .357-2.857 3-4"/>
  <path style="opacity:1" fill="#a2a2a2" d="M480.5 540.5a24.2 24.2 0 0 1-7 9 24.2 24.2 0 0 1 7-9"/>
  <path style="opacity:1" fill="#b1b3b2" d="M581.5 541.5q13.626.147-.5 2l-1.5-.5q1.374-.417 2-1.5"/>
  <path style="opacity:1" fill="#757575" d="M604.5 543.5q9.73-1.731 20-.5-1.116 1.558-3 1.5-8.213-1.483-17-1"/>
  <path style="opacity:1" fill="#adadad" d="M464.5 541.5q-.357 2.857-3 4 .357-2.857 3-4"/>
  <path style="opacity:1" fill="#a1a1a1" d="M496.5 541.5a24.2 24.2 0 0 1-7 9 24.2 24.2 0 0 1 7-9"/>
  <path style="opacity:1" fill="#e9e9e9" d="M604.5 543.5q8.787-.483 17 1a76 76 0 0 1-20 .5q1.116-1.558 3-1.5"/>
  <path style="opacity:1" fill="#c7c7c7" d="M650.5 542.5a18.5 18.5 0 0 1 6 .5l-1 1a76.5 76.5 0 0 0-10 2q2.6-1.784 5-3.5"/>
  <path style="opacity:1" fill="#a4a4a4" d="M474.5 542.5q-.357 2.857-3 4 .357-2.857 3-4"/>
  <path style="opacity:1" fill="#acacac" d="M499.5 543.5q-.357 2.857-3 4 .357-2.857 3-4"/>
  <path style="opacity:1" fill="#a3a3a3" d="M511.5 542.5a5.73 5.73 0 0 1-1 3l-3 2q.87-3.373 4-5"/>
  <path style="opacity:1" fill="#909090" d="M418.5 543.5a30 30 0 0 1-3.5 6q-1.256 2.26-3.5 1.5a36.1 36.1 0 0 1 7-7.5"/>
  <path style="opacity:1" fill="#a3a3a3" d="M431.5 540.5q-1.4 4.305-5 7 1.4-4.305 5-7"/>
  <path style="opacity:1" fill="#9b9b9b" d="M458.5 543.5q-.357 2.857-3 4 .357-2.857 3-4"/>
  <path style="opacity:1" fill="#919291" d="M434.5 544.5q-3.806 7.076-9.5 13 3.137-7.43 9.5-13"/>
  <path style="opacity:1" fill="#a4a4a4" d="M452.5 544.5q-.357 2.857-3 4 .357-2.857 3-4"/>
  <path style="opacity:1" fill="#acacac" d="M467.5 544.5q-.357 2.857-3 4 .357-2.857 3-4"/>
  <path style="opacity:1" fill="#a6a6a6" d="M488.5 544.5q-.357 2.857-3 4 .357-2.857 3-4"/>
  <path style="opacity:1" fill="#a3a4a3" d="M415.5 536.5q3.219.294.5 3l-9 11q-1-1 0-2 5.2-5.43 8.5-12"/>
  <path style="opacity:1" fill="#252525" d="M510.5 545.5q-.278 2.544-2.5 4a2.43 2.43 0 0 1-.5-2z"/>
  <path style="opacity:1" fill="#939393" d="M471.5 546.5q-.87 3.373-4 5 .87-3.373 4-5"/>
  <path style="opacity:1" fill="#9f9f9f" d="M502.5 547.5q-.357 2.857-3 4 .357-2.857 3-4"/>
  <path style="opacity:1" fill="#b8b8b8" d="M559.5 544.5a8.4 8.4 0 0 1 4 .5q-13.818 4.46-28 6a55 55 0 0 1 9-4 306 306 0 0 0 15-2.5"/>
  <path style="opacity:1" fill="#b8b9b9" d="M578.5 548.5a18.5 18.5 0 0 1 6 .5 20.1 20.1 0 0 1-10 2q2.35-.912 4-2.5"/>
  <path style="opacity:1" fill="#878787" d="M455.5 547.5q-.797 3.066-3.5 5 .115-3.408 3.5-5"/>
  <path style="opacity:1" fill="#9a9a9a" d="M464.5 548.5q-.357 2.857-3 4 .357-2.857 3-4"/>
  <path style="opacity:1" fill="#a0a0a0" d="M496.5 547.5q-.357 2.857-3 4 .357-2.857 3-4"/>
  <path style="opacity:1" fill="#505150" d="M603.5 550.5q10.732-1.733 22-.5l-3 1.5q-9.217-1.485-19-1"/>
  <path style="opacity:1" fill="#949494" d="M426.5 547.5q-.87 3.373-4 5 .87-3.373 4-5"/>
  <path style="opacity:1" fill="#959696" d="M449.5 548.5q-.357 2.857-3 4 .357-2.857 3-4"/>
  <path style="opacity:1" fill="#8c8c8c" d="M485.5 548.5q-.357 2.857-3 4 .357-2.857 3-4"/>
  <path style="opacity:1" fill="#ececec" d="M603.5 550.5q9.783-.485 19 1a106.7 106.7 0 0 1-24 .5q2.288-1.514 5-1.5"/>
  <path style="opacity:1" fill="#939493" d="M461.5 545.5q-1.543 5.086-6 8a27.7 27.7 0 0 1 6-8"/>
  <path style="opacity:1" fill="#7a7b7b" d="M473.5 549.5q-.797 3.066-3.5 5 .115-3.408 3.5-5"/>
  <path style="opacity:1" fill="#656565" d="M510.5 545.5q3.218.294.5 3a80.6 80.6 0 0 1-8 9q-.673-2.586-2.5-2a550 550 0 0 1 7-8 2.43 2.43 0 0 0 .5 2q2.222-1.456 2.5-4"/>
  <path style="opacity:1" fill="#919191" d="M489.5 550.5q-.357 2.857-3 4 .357-2.857 3-4"/>
  <path style="opacity:1" fill="#747474" d="M493.5 551.5q-.797 3.066-3.5 5 .115-3.408 3.5-5"/>
  <path style="opacity:1" fill="#7b7d7c" d="M467.5 551.5q-.797 3.066-3.5 5 .115-3.408 3.5-5"/>
  <path style="opacity:1" fill="#757776" d="M499.5 551.5q-.797 3.066-3.5 5 .115-3.408 3.5-5"/>
  <path style="opacity:1" fill="#c3c3c3" d="M551.5 552.5a12.9 12.9 0 0 1 5 .5 160 160 0 0 1-29 6 25.5 25.5 0 0 1 9-4q7.772-.9 15-2.5"/>
  <path style="opacity:1" fill="#5e605f" d="M422.5 552.5q-.797 3.066-3.5 5 .115-3.408 3.5-5"/>
  <path style="opacity:1" fill="#7a7c7b" d="M446.5 552.5q-.797 3.066-3.5 5 .115-3.408 3.5-5"/>
  <path style="opacity:1" fill="#626463" d="M461.5 552.5q-.797 3.066-3.5 5 .115-3.408 3.5-5"/>
  <path style="opacity:1" fill="#595959" d="M482.5 552.5q-.797 3.066-3.5 5 .115-3.408 3.5-5"/>
  <path style="opacity:1" fill="#7e7e7e" d="M455.5 553.5q-.797 3.066-3.5 5 .115-3.408 3.5-5"/>
  <path style="opacity:1" fill="#5c5c5c" d="M486.5 554.5q-.797 3.066-3.5 5 .115-3.408 3.5-5"/>
  <path style="opacity:1" fill="#cccdcc" d="M577.5 555.5a8.4 8.4 0 0 1 4 .5l-1 1a55.4 55.4 0 0 1-12 2 165 165 0 0 1 9-3.5"/>
  <path style="opacity:1" fill="#d7d8d7" d="M621.5 556.5a8.4 8.4 0 0 1 4 .5q-4.197 2.18-9 3-10.5 1-21 0a7.3 7.3 0 0 1 3-2 261 261 0 0 0 23-1.5"/>
  <path style="opacity:1" fill="#565656" d="M474.5 555.5q-.797 3.066-3.5 5 .115-3.408 3.5-5"/>
  <path style="opacity:1" fill="#c5c6c5" d="M549.5 559.5a8.4 8.4 0 0 1 4 .5q-15.692 5.443-32 7a31 31 0 0 1 8-4q10.385-.872 20-3.5"/>
  <path style="opacity:1" fill="#929493" d="M618.5 564.5q4.206-1.707 9-.5-.816 1.075-2 1.5-3.161-1.452-7-1"/>
  <path style="opacity:1" fill="#797b7a" d="M416.5 564.5q1.82 1.495-.5 3-.705-1.615.5-3"/>
  <path style="opacity:1" fill="#c1c2c1" d="M573.5 562.5a12.9 12.9 0 0 1 5 .5q-7.426 4.357-16 4a197 197 0 0 0 11-4.5"/>
  <path style="opacity:1" fill="#dedede" d="M618.5 564.5q3.839-.452 7 1a43.2 43.2 0 0 1-11 2q-8.787.483-17-1 10.227-2.753 21-2"/>
  <path style="opacity:1" fill="#999" d="M597.5 566.5q8.213 1.483 17 1-8.769 1.976-18 0 .186-.91 1-1"/>
  <path style="opacity:1" fill="#808281" d="M447.5 567.5q1.82 1.495-.5 3-.705-1.615.5-3"/>
  <path style="opacity:1" fill="#767877" d="M469.5 568.5q1.782 2.994-2 2.5 1.321-1.062 2-2.5"/>
  <path style="opacity:1" fill="#737574" d="M418.5 570.5q1.82 1.495-.5 3-.705-1.615.5-3"/>
  <path style="opacity:1" fill="silver" d="M570.5 569.5q2.217-.393 4 1-8.308 4.97-18 4.5 7.148-2.768 14-5.5"/>
  <path style="opacity:1" fill="#858786" d="M409.5 571.5q1.82 1.495-.5 3-.705-1.615.5-3"/>
  <path style="opacity:1" fill="#777978" d="M437.5 572.5q1.82 1.495-.5 3-.705-1.615.5-3"/>
  <path style="opacity:1" fill="#d7d7d7" d="M608.5 572.5q5.025-.247 10 .5a7.3 7.3 0 0 1-3 2 93.5 93.5 0 0 1-25 1q2.174-1.676 5-2 6.779-.262 13-1.5"/>
  <path style="opacity:1" fill="#7f8180" d="M470.5 576.5q1.82 1.495-.5 3-.705-1.615.5-3"/>
  <path style="opacity:1" fill="#b5b7b6" d="M420.5 578.5q1.82 1.495-.5 3-.705-1.615.5-3"/>
  <path style="opacity:1" fill="#787a79" d="M411.5 578.5q1.82 1.495-.5 3-.705-1.615.5-3"/>
  <path style="opacity:1" fill="#d2d3d2" d="M569.5 576.5q1.314-.197 2 1-10.005 4.875-21 5.5a5836 5836 0 0 1 19-6.5"/>
  <path style="opacity:1" fill="#d9d9d9" d="M606.5 583.5q-7.793.481-15-1l3-1.5q10.575-.672 21-1-3.507 4.246-9 3.5"/>
  <path style="opacity:1" fill="#c9cac9" d="M540.5 575.5q3.513.412 0 2.5-18.76 5.95-38 8a35.2 35.2 0 0 1 10-5 103.4 103.4 0 0 0 27-4q.834-.575 1-1.5"/>
  <path style="opacity:1" fill="#494949" d="M591.5 582.5q7.207 1.481 15 1-7.77 1.973-16 0 .186-.91 1-1"/>
  <path style="opacity:1" fill="#6f7170" d="M430.5 582.5q1.82 1.495-.5 3-.705-1.615.5-3"/>
  <path style="opacity:1" fill="#7d7f7e" d="M421.5 584.5q1.82 1.495-.5 3-.705-1.615.5-3"/>
  <path style="opacity:1" fill="#737574" d="M473.5 583.5q1.82 1.495-.5 3-.705-1.615.5-3"/>
  <path style="opacity:1" fill="#cfcfcf" d="M562.5 584.5q8.913-.432 1 2.5a693 693 0 0 0-17.5 5.5q-2.65-2.496 1.5-3.5 7.896-1.611 15-4.5"/>
  <path style="opacity:1" fill="#767877" d="M463.5 586.5q1.82 1.495-.5 3-.705-1.615.5-3"/>
  <path style="opacity:1" fill="#c8c9c8" d="M533.5 583.5a2.43 2.43 0 0 1 2 .5 14.6 14.6 0 0 1-6 4q-19.322 5.763-39 8a35.2 35.2 0 0 1 10-5 233 233 0 0 0 30-5q2.163-.565 3-2.5"/>
  <path style="opacity:1" fill="#858786" d="M433.5 588.5q1.82 1.495-.5 3-.705-1.615.5-3"/>
  <path style="opacity:1" fill="#d6d6d6" d="M592.5 587.5a61 61 0 0 1 11 .5q-6.59 3.561-14 2a81 81 0 0 0 3-2.5"/>
  <path style="opacity:1" fill="#727473" d="M455.5 587.5q1.782 2.994-2 2.5 1.321-1.062 2-2.5"/>
  <path style="opacity:1" fill="#6e706f" d="M457.5 595.5q1.914 1.329 0 3-1.593-1.387 0-3"/>
  <path style="opacity:1" fill="#bababa" d="M513.5 598.5q-2.128-1.426-5-1a222 222 0 0 1 16-3.5 15.8 15.8 0 0 0 5.5-3.5q.135 3.402-3.5 4.5a188 188 0 0 1-13 3.5"/>
  <path style="opacity:1" fill="#c8c9c8" d="M560.5 591.5a4.93 4.93 0 0 1 3 .5q-12.146 7.306-26 7.5a27 27 0 0 1 6-3.5q8.894-1.615 17-4.5"/>
  <path style="opacity:1" fill="#d8d8d8" d="M508.5 597.5q2.872-.426 5 1a74.6 74.6 0 0 1-22 3.5 19.1 19.1 0 0 0-7 2.5q-1.794-.519 0-1.5 11.169-6.054 24-5.5"/>
  <path style="opacity:1" fill="#d0d0d0" d="M524.5 599.5q3.64 1.169 0 3.5-19.734 8.148-41 7l35-7q3.787-.635 6-3.5"/>
  <path style="opacity:1" fill="#d6d6d6" d="M558.5 598.5q2.818-.16 1 1.5-13.627 6.153-28 7.5a27 27 0 0 1 6-3.5 216 216 0 0 0 21-5.5"/>
  <path style="opacity:1" fill="#d3d3d3" d="M522.5 606.5q1.538.595.5 2-7.374 6.887-17.5 4.5a63.6 63.6 0 0 0 15-4q1.321-1.062 2-2.5"/>
</svg>
